<?xml version="1.0" encoding="UTF-8"?>
<svg id="a" xmlns="http://www.w3.org/2000/svg" viewBox="0 0 150 150"><defs><style>.b{fill:#fff;}.c{fill:#a81411;}.d{fill:#e92c18;}</style></defs><circle class="d" cx="75.09395" cy="75.47086" r="62.05795"/><path class="c" d="M71.43833,115.83154c-.56016,0-1.115-.14303-1.69792-.4287-6.89032-3.3818-12.19995-7.57321-16.23258-12.81322-5.81022-7.55007-7.54381-16.21475-5.15238-25.75278l.00057-.0019-2.03879-.33461-.05937,.46247c-.14549,1.13018-.28681,2.22886-.4232,3.32831-.21814,1.75843-.43951,3.51648-.66069,5.27454-.63717,5.0617-1.29616,10.29565-1.86333,15.4484-.20316,1.84417-.96704,3.07488-2.47698,3.98995-.81434,.49395-1.58221,1.05506-2.39503,1.64955-.39323,.28719-.78646,.57476-1.18462,.85399-.73069,.51216-1.38967,.70565-2.01812,.59108-.36231-.06601-.88187-.27391-1.29957-.88813-.27164-.39873-1.01447-1.8051,.84507-3.13179,.41884-.29895,.8409-.59449,1.26277-.88965,.88794-.62143,1.80623-1.2641,2.67008-1.92726,.13923-.10699,.27221-.34789,.2851-.44843,1.0046-7.89227,1.99611-15.92187,2.95519-23.68742l.35984-2.91365c.07531-.61004,.24223-1.37108,.86821-1.84645,.62105-.47195,1.37431-.43098,1.96159-.3441,1.25746,.18855,2.5318,.39835,3.76422,.60094,.25722,.04249,.51463,.0846,.77223,.12709,.04344-.09902,.08669-.19804,.12975-.29706,.34713-.7967,.70641-1.62072,1.19714-2.38783,.7341-1.14725,1.52985-2.26604,2.29943-3.34804,.50515-.7102,1.02774-1.44468,1.52208-2.1731,.23901-.35169,.40954-.82895,.55067-1.24854,.09636-.28643,.17224-.60018,.24793-.93138l-5.57975-3.11889-1.88173,2.55286c-2.19662,2.9789-4.46816,6.05948-6.67976,9.10325-.72139,.99246-1.54731,1.47997-2.67862,1.58088-1.53536,.13696-3.10144,.33689-4.61612,.53037-.63983,.08157-1.27965,.16313-1.91986,.24053-.16807,.02049-.33765,.03339-.50685,.04211-1.01067,.05273-1.60232-.29099-1.92062-.59032-.38109-.35776-.59354-.8593-.59828-1.41168-.00531-.59639,.19899-2.00693,2.20231-2.22773,.88111-.09712,1.76166-.19955,2.64201-.30237,1.22578-.14303,2.45137-.28605,3.67886-.4139,.29326-.03035,.41523-.10167,.59354-.34675,2.35084-3.22929,4.75782-6.49918,7.08551-9.66094l1.93465-2.62873c1.11993-1.52208,1.96671-1.7057,3.6248-.78266,1.85574,1.03268,3.70978,2.06915,5.5052,3.07261l1.56134,.87258,.47726-.26595c.90881-.50458,1.76868-.9826,2.60938-1.48148,.01385-.02845,.03073-.06905,.04382-.11609,.0074-.03414,.00948-.14492,.011-.22611,.00455-.22839,.01062-.541,.12425-.8684,.03073-.08878,.04628-.15251,.05406-.19576-.05786-.03414-.16465-.08688-.3515-.15099-1.76071-.60435-3.44668-1.31076-5.00631-1.98454-.6311-.27278-1.21459-.78039-1.56115-1.35781-.60246-1.00308-1.19088-2.03121-1.75995-3.02557-.56433-.98639-1.14801-2.00617-1.74003-2.9918-.21587-.35927-.5501-.71324-.91677-.97046-1.52322-1.06872-3.10391-2.12188-4.63243-3.14014l-.97254-.64836c-1.3635-.91014-1.32594-2.13098-.83597-2.9698,.39532-.67682,.93005-.92417,1.30905-1.01219,.55788-.13013,1.16584-.00114,1.71291,.36117,2.45687,1.62717,4.68175,3.12648,6.80212,4.58292,.44445,.30502,.70356,.75687,.89268,1.08655l.0478,.08308c.38545,.66468,.76673,1.33163,1.14801,1.99896,.72689,1.27207,1.47845,2.58738,2.24594,3.85641,.11685,.19348,.38507,.41201,.65216,.53151,.78096,.35055,1.58581,.66164,2.43373,.98601,.3606-1.93636,1.40769-3.3966,3.12762-4.36023-.46247-1.58885-.06848-3.0635,1.17627-4.40386-.26007-.20259-.49832-.36876-.72803-.46095-2.54849-1.02281-5.16262-2.01945-7.69044-2.98383-.94675-.36079-1.8933-.72196-2.8391-1.08503-.03433-.0129-.07303-.02276-.11173-.03376-.27012-.07739-.77299-.22118-1.05506-.71286l-.05254-.09067c-.28055-.48333-.66506-1.14497-.53379-1.88401,.09731-.54745,.40442-1.00346,.8648-1.28458,.49414-.30199,1.12809-.36648,1.73965-.17869,.41732,.12823,.8132,.2834,1.19619,.43325l.33974,.13202c.91507,.35093,1.829,.70451,2.74293,1.05809,2.15489,.83388,4.38318,1.69621,6.58492,2.50202,1.04425,.38242,2.35027,.99246,3.27368,2.33813,1.64803-.77432,3.3782-.76635,5.02206,.02428,.93043-1.35818,2.29431-1.99251,3.39167-2.39465,2.35766-.86423,4.74283-1.78992,7.04966-2.68526,.9475-.36762,1.89482-.73524,2.84327-1.09983,.06393-.02466,.12823-.04553,.19254-.06563l.06127-.01973c.8832-.33461,1.6063-.36193,2.20952-.08195,.3331,.15441,.78077,.48068,1.02073,1.15711,.16238,.45829,.52165,2.01945-1.68388,2.8685-1.38076,.53151-2.76303,1.05961-4.14531,1.58771l-2.35292,.89989c-.36933,.14151-.74093,.27885-1.11235,.41618-.91886,.33993-1.78651,.66088-2.63385,1.04557-.3496,.15896-.69579,.37293-1.07384,.62181,.86214,.93138,1.71917,2.3882,1.15484,4.36061,1.67762,.96477,2.71409,2.36468,3.09518,4.17964,1.01978-.33613,1.98891-.65671,2.95633-1.00384,.04401-.06449,.09864-.1582,.12937-.21056,.51349-.88016,1.02262-1.76298,1.53175-2.6458,.65102-1.12866,1.30185-2.25732,1.96216-3.38029,.33082-.56224,.68839-.97122,1.093-1.24968,2.05492-1.41471,4.26045-2.9182,6.46769-4.3314,.69844-.44653,1.63532-.40518,2.2245-.23408,.88661,.2576,1.28667,1.46403,1.16223,2.14919-.12785,.70261-.66335,1.29293-1.12183,1.61123-.9826,.68175-1.97468,1.34908-2.96676,2.01641-.93461,.62863-1.86921,1.25727-2.79566,1.89804-.23901,.16503-.46816,.41011-.61365,.65595-.48732,.8244-.96268,1.656-1.43804,2.48722-.6808,1.19088-1.38474,2.42235-2.11771,3.61816-.40006,.65254-1.11709,1.23906-1.8713,1.5308-1.12487,.43591-2.27894,.81263-3.39508,1.17684-.47442,.15479-.94883,.30958-1.42173,.46892-.09181,.03073-.14511,.05653-.17262,.0717-.03566,.13089-.05179,.4674-.05824,.60094-.04382,.91545,.24982,1.29217,1.36615,1.75388,.69996,.28909,1.28819,.73183,1.85726,1.15977,.06279,.04742,.12614,.09485,.18988,.14265l7.07034-3.94556c1.70475-.95225,2.56727-.76256,3.69157,.81453l1.94338,2.7213c2.23418,3.12724,4.54423,6.36108,6.7896,9.56344,.24091,.34334,.43193,.45564,.85209,.49965,1.07839,.11268,2.15545,.24015,3.23252,.368,.96989,.11495,1.93978,.22991,2.9108,.33386,2.00446,.21511,2.20667,1.62868,2.2006,2.22659-.00588,.57818-.23692,1.09755-.65026,1.46289-.346,.30578-.97653,.64571-2.02134,.52658l-1.20036-.13506c-2.02571-.22725-4.12046-.46209-6.17917-.76559-.86821-.12785-1.61901-.78342-1.99782-1.30621-2.20155-3.03429-4.41296-6.13687-6.55134-9.1374l-2.04259-2.86395-5.65563,3.15607c.07512,.49775,.14777,.97577,.23123,1.45151,2.38289,2.53465,4.22403,5.40163,5.61086,8.74132l3.98768-.65064c.2667-.04363,.53379-.0865,.80239-.11419,1.47447-.15289,2.3901,.57969,2.57657,2.06004,.22478,1.78082,.4416,3.56277,.65823,5.3451,.14075,1.15673,.2815,2.31347,.42434,3.46982l.17072,1.38209c.67947,5.50065,1.38209,11.18795,2.09798,16.77851,.02447,.03794,.07455,.09712,.12235,.1324,.90179,.66657,1.83772,1.32821,2.74293,1.96823,.45108,.31906,.90198,.63812,1.35136,.95908,1.48281,1.05961,1.39461,2.32067,.81738,3.14773-.42225,.60587-.94409,.8096-1.30735,.87371-.60967,.10699-1.25992-.07929-1.93636-.55428-.55181-.38735-1.10077-.77849-1.64974-1.17001-.96799-.68972-1.96899-1.40295-2.96373-2.07825-.79727-.54138-1.24171-1.27889-1.35875-2.25466-.53189-4.4361-1.07687-8.87031-1.62185-13.30452-.50135-4.07873-1.00688-8.15632-1.51335-12.23391l-2.03386,.32513,.06203,.29099c.20695,.97197,.42092,1.97696,.57135,2.98004,1.48054,9.87567-1.4149,18.63217-8.60607,26.02707-3.69005,3.79419-8.07873,6.83455-13.41682,9.29446-.58387,.26936-1.13264,.40404-1.67668,.40404Zm-2.97321-6.00143c1.00593,.55617,2.02134,1.11386,3.03164,1.6579,.99815-.54707,1.99346-1.10134,2.98801-1.6579h-6.01964Zm-11.18283-9.21972c1.0156,1.27093,2.127,2.43525,3.35999,3.52293,.45981,.40556,1.03609,.71058,1.50406,.79632,5.81364,1.0653,11.78794,1.11197,18.26569,.14265,1.05164-.15706,1.45815-.37559,1.61389-.53113,1.24058-1.24171,2.43032-2.60028,3.58174-3.91901-9.51412,1.47465-18.83134,1.47086-28.32536-.01176Zm-5.24665-10.75622c.35548,1.7664,.93593,3.4812,1.73225,5.11406,.08536,.17452,.32968,.40025,.51254,.47309,2.40471,.95983,5.15958,1.47617,8.67019,1.62527,4.61612,.19652,9.57084,.35169,14.52157,.15858,2.31916-.08991,4.69958-.47992,7.00167-.8574,.96723-.15858,1.96747-.32247,2.95728-.4636,1.29938-.18514,1.98227-.79139,2.28293-2.02665,.33329-1.36919,.71589-2.72016,1.08579-4.02637-13.06399,2.17499-25.77838,2.17575-38.76422,.00304Zm-.4803-4.62314c.11381,.03225,.27353,.07132,.47821,.11647l.38052,.08422c2.15849,.4784,4.39058,.97273,6.57828,1.17305,9.91532,.90748,18.90551,.80239,27.48579-.32172,1.27946-.16769,2.53446-.50685,3.86343-.86575,.29649-.08005,.59278-.1601,.88908-.23825-.05899-1.45644-.15308-2.93186-.24432-4.3625l-.00341-.05577-.13202,.03642c-.94371,.25912-1.83526,.5042-2.75734,.67302-7.25244,1.33011-14.54946,1.33087-20.09563,1.18177-5.01751-.1343-10.65909-.28492-16.09411-1.89577l-.03699,.38697c-.11192,1.16318-.22763,2.36544-.28985,3.53925-.00873,.16503-.02049,.38545-.02162,.54859Zm1.28117-8.65406l.02371,.00721,.60644,.17186c.94106,.26822,1.82976,.52165,2.73287,.67606,5.58999,.95566,11.19819,1.05847,15.949,1.03154,4.96914-.02732,10.27345-.19159,15.39472-1.19809,.75952-.1491,1.51601-.38849,2.31707-.64191,.04723-.01518,.09447-.02997,.1417-.04477-1.01238-3.18604-2.40205-5.83754-4.30237-8.20488-1.89634,1.97696-4.21246,2.89809-5.88022,3.43378-3.65496,1.17494-7.65705,1.52549-11.89398,1.04368-2.15337-.24508-5.34586-.77242-8.19748-2.51568-.86176-.52696-1.63855-1.16849-2.38953-1.7884-.06924-.05729-.13885-.11457-.20847-.17224-1.87319,2.33357-3.31389,5.08561-4.29346,8.20184Zm9.92101-15.41729c-.08934,.05501-.17888,.10964-.26841,.16427-.95149,.58197-1.85005,1.13131-2.57638,1.82255-.28435,.2705-.43837,.58425-.44558,.90672-.00778,.34903,.14986,.70186,.45583,1.01978,.77223,.80277,1.72106,1.50918,2.6716,1.98948,2.69949,1.3635,5.67915,1.69963,9.31779,1.77968,.22687-.01973,.4875-.0387,.77261-.05956,.80998-.05918,1.81799-.13278,2.79907-.28416,.93214-.14341,1.95268-.39418,3.21203-.78949,1.77835-.55769,3.03126-1.26865,3.94253-2.23683,.32513-.34524,.70793-.87637,.68592-1.44696-.01612-.41808-.24868-.83426-.69161-1.23754-.51216-.46664-1.14725-.84716-1.8197-1.25044-.23825-.14265-.4765-.28567-.71077-.43287-1.44999,1.85442-3.40096,3.31845-5.80188,4.35302-1.88135,.80998-3.75322,.8354-5.56344,.07284-2.40243-1.01105-4.41296-2.48039-5.97962-4.37047Zm3.48613-2.46939c1.1886,1.4333,2.6938,2.43752,4.48163,2.98877,.40878,.12595,.91165,.14303,1.2512,.04097,1.87338-.55959,3.42733-1.57823,4.62921-3.03277-3.44858,.26253-6.86813,.26367-10.36204,.00304Zm-3.6578,2.25846l.00436,.00531-.00436-.00531Zm-1.33371-3.87538l-.00095,.00076,.00095-.00076Zm10.19758-6.95975c-1.43861,0-2.88766,.00304-4.33747,.00948-1.74003,.00759-2.10879,1.23375-2.11183,2.26073-.00455,1.56684,.69484,2.36848,2.07882,2.38327,.99986,.01138,1.99972,.00835,2.99996,.00531l1.34244-.00228,1.31949,.00152c.98013,.0019,1.96026,.00379,2.93982-.00341,1.43197-.00948,2.15868-.78494,2.16001-2.30512,.00152-1.54636-.71096-2.33357-2.1179-2.34002s-2.83493-.00948-4.27335-.00948Zm.08214-6.49614c-.02637,0-.05084,.00152-.07322,.00455-1.12335,.36307-2.26472,.94807-3.22872,1.47124-.14663,.07967-.20581,.16541-.21075,.18779-.00038,.00455,.00209,.02921,.02011,.07246,.23787,.57135,.3993,.55997,.61991,.54517,.64533-.04363,1.28155-.03301,1.89653-.02352,.5704,.00948,1.13966,.00873,1.70873,.01138,.68649,.00341,1.39555,.00607,2.0866-.00721,.10888-.00228,.2557-.11268,.34884-.26291,.09409-.15137,.09181-.2667,.08271-.28605-.33765-.57362-2.52175-1.71291-3.25073-1.71291Zm-26.02915-4.10187v0Zm9.0951-3.67431l.00341,.00607-.00341-.00607Z"/><path d="M74.13392,149.43842c-1.1826-.8219-1.52914-1.94676-1.48065-3.37018,.09209-2.70284,.02667-5.41103,.02667-8.2474-16.33203-.92531-30.45319-6.85624-42.00984-18.38447-11.57217-11.5437-17.5335-25.65604-18.48603-42.11556-2.76034,0-5.50775-.06414-8.25005,.0264-1.42259,.04698-2.54951-.29691-3.37169-1.48039v-1.74478c.8189-1.19032,1.94895-1.5278,3.37094-1.4802,2.70299,.09049,5.41116,.02622,8.24284,.02622,.93419-16.34076,6.85714-30.46885,18.39961-42.02621,11.55326-11.56816,25.6697-17.52567,42.10422-18.4679,0-2.59037-.00035-5.14656,.00029-7.70274,.00013-.53302-.02587-1.06817,.01193-1.59865,.09845-1.38171,1.04778-2.31365,2.31743-2.31098,1.26799,.00266,2.27007,.93512,2.3016,2.3204,.05621,2.47013,.01949,4.94238,.02143,7.41375,.00046,.57509,.00007,1.15019,.00007,1.86663,16.31964,.93491,30.45206,6.84615,42.00839,18.38532,11.56925,11.5521,17.54331,25.66222,18.48019,42.12037,2.52906,0,5.03417-.00016,7.53929,.00012,.53304,.00006,1.06695-.01772,1.59895,.00632,1.48913,.06727,2.46795,.98554,2.47808,2.3026,.01012,1.31698-.96745,2.30503-2.4463,2.32878-2.6161,.04201-5.23331,.01381-7.85007,.01494-.38353,.00017-.76707,.00003-1.32625,.00003-.88668,16.31286-6.85517,30.42801-18.37595,41.97688-11.53831,11.56642-25.63487,17.59064-42.10634,18.49484,0,2.78116-.06464,5.53008,.02661,8.27382,.04734,1.42341-.29976,2.54857-1.48059,3.37203h-1.74478ZM17.02704,72.66892c2.94404,0,5.88807-.01842,8.83172,.00736,1.59942,.01401,2.60702,.94627,2.60735,2.31654,.00034,1.36317-1.01559,2.30064-2.60702,2.31991-2.32552,.02819-4.65162,.00779-6.97748,.00807-.64864,.00007-1.29728,0-1.95207,0,1.439,33.37362,29.50256,55.51229,55.70224,55.5974,.01575-.27978,.0452-.56464,.04573-.84955,.00506-2.71349-.02661-5.42751,.01956-8.14024,.02488-1.46225,1.0529-2.43403,2.37303-2.39536,1.26084,.03694,2.168,.98258,2.25267,2.38062,.03218,.53114,.00958,1.06569,.00969,1.59869,.00051,2.50352,.00022,5.00702,.00022,7.51194,30.98915-.95913,55.08883-26.9376,55.65457-55.64166-.46981-.02052-.94278-.05775-1.41585-.05905-2.51965-.00693-5.03979,.02346-7.55884-.01662-1.48889-.02369-2.46267-.9873-2.46687-2.30703-.00422-1.32239,.96696-2.29097,2.45291-2.31807,2.27666-.04154,4.55459-.01284,6.83199-.01376,.74669-.0003,1.49338-.00005,2.24345-.00005-1.43415-33.45155-29.75973-55.59411-55.69651-55.58681-.01475,.28206-.04212,.5671-.04264,.85218-.00504,2.71348,.02621,5.42751-.02044,8.14022-.02402,1.39734-.98467,2.34501-2.24394,2.38204-1.31207,.03857-2.30175-.94326-2.38078-2.39766-.03414-.62813-.00948-1.25952-.00961-1.88943-.00049-2.40596-.0002-4.81192-.0002-7.21943-31.25333,1.06696-55.1555,27.18942-55.6529,55.71974Z"/><path d="M53.90029,73.48468c.53224-1.12313,.94503-2.28535,1.59249-3.29745,1.19999-1.87579,2.5537-3.6526,3.80535-5.49646,.3058-.45048,.50445-.98745,.67978-1.50906,.19128-.56909,.29823-1.16653,.45791-1.81666l-7.07965-3.95672c-.19767,.24737-.38023,.46048-.5462,.68582-2.8749,3.90324-5.75993,7.79914-8.60951,11.7208-.49607,.6827-1.02594,1.06449-1.90611,1.1431-2.19547,.19609-4.38044,.50959-6.56978,.77474-.14402,.01744-.2891,.02817-.43402,.03589-.85513,.04557-1.38469-.28975-1.39041-.94059-.00713-.81146,.53098-1.07337,1.24739-1.15226,2.10552-.23186,4.20756-.49624,6.31434-.71534,.59164-.06153,.99116-.28999,1.34963-.78243,2.98962-4.1069,6.00712-8.19351,9.01708-12.2856,.7911-1.07551,1.06012-1.13728,2.23932-.48099,2.58374,1.438,5.16378,2.88262,7.58727,4.23625,1.31985-.73916,2.53851-1.39939,3.72805-2.10848,.21242-.12663,.36495-.43869,.43649-.69541,.09172-.32915,.00503-.71267,.11541-1.03109,.33477-.96568-.03672-1.39463-.96261-1.71233-1.67054-.57322-3.30682-1.25372-4.92923-1.95462-.41581-.17964-.83447-.53809-1.067-.92536-1.19445-1.98923-2.30539-4.02862-3.50011-6.01768-.29972-.499-.7421-.96074-1.21976-1.29588-1.85271-1.29988-3.74333-2.54593-5.62598-3.80282-.58183-.38844-.88716-.88291-.50523-1.53693,.35899-.61473,.94351-.6686,1.50394-.29745,2.2743,1.50622,4.53844,3.02812,6.78686,4.57258,.26915,.18488,.44757,.52667,.61987,.82367,1.13541,1.95713,2.23328,3.93664,3.40397,5.87221,.2442,.40375,.69444,.75953,1.13134,.95543,1.21234,.5436,2.46768,.99129,3.80349,1.51509,.03141-2.57317,1.1638-4.36479,3.55984-5.33247-1.00789-2.00461-.37233-3.56347,1.47202-5.00178-.72233-.51803-1.29133-1.11423-1.98748-1.39365-3.49677-1.40354-7.0269-2.72394-10.54477-4.07495-.21612-.083-.52931-.11969-.62101-.27925-.22339-.38871-.52862-.87-.46047-1.25351,.09897-.55694,.63535-.80972,1.23266-.62581,.49774,.15325,.98079,.35512,1.46789,.54185,3.11266,1.19321,6.21298,2.42002,9.34291,3.56598,1.15648,.42342,2.14898,.99493,2.82263,2.03465,.30219,.4664,.62913,.58864,1.14557,.32983,1.43948-.72136,2.89608-.72048,4.3358,.00838,.48401,.24503,.84473,.21639,1.1582-.27978,.69731-1.10375,1.75079-1.68156,2.96295-2.12586,3.32003-1.21691,6.60787-2.52164,9.90868-3.79097,.08121-.03123,.16635-.05216,.24774-.08296,.98818-.37398,1.60662-.2298,1.84064,.43019,.23075,.65076-.10541,1.14236-1.05831,1.50925-2.16392,.83316-4.33125,1.65747-6.49655,2.48705-1.27224,.48743-2.56762,.92443-3.80598,1.48676-.78319,.35565-1.48049,.90044-2.38175,1.46381,1.81121,1.4234,2.58387,2.94208,1.55283,5.01827,2.18683,.93573,3.46065,2.54895,3.53819,5.08691,1.49744-.49872,2.9439-.96007,4.37055-1.47619,.23094-.08355,.41156-.38839,.55154-.62823,1.16979-2.0043,2.31605-4.02238,3.49229-6.02284,.20011-.34033,.4582-.69088,.77666-.91012,2.12736-1.46456,4.26281-2.91905,6.43762-4.31122,.34514-.22094,.93575-.22709,1.34744-.10742,.22081,.06418,.45879,.63611,.40585,.92749-.06196,.34107-.37357,.71049-.67808,.92176-1.90725,1.32327-3.85173,2.59282-5.76096,3.91332-.36526,.25263-.70067,.61016-.92658,.9922-1.19591,2.02246-2.31946,4.08843-3.54708,6.0909-.28748,.46893-.82664,.89084-1.34416,1.09139-1.566,.60683-3.17902,1.09203-4.77214,1.62927-.84995,.28662-.91583,.72577-.95943,1.63774-.07488,1.56612,.71795,2.25481,2.02762,2.79616,.83796,.34637,1.54512,1.00917,2.38403,1.57985,2.50855-1.39968,5.08767-2.83796,7.66598-4.27769,1.22149-.68208,1.4916-.62653,2.29556,.50065,2.91585,4.08811,5.84531,8.1667,8.72812,12.27799,.42904,.61188,.91185,.87652,1.61842,.95039,2.049,.21421,4.09231,.48247,6.14082,.70187,.72831,.078,1.25068,.34304,1.24242,1.14906-.00691,.67534-.58476,1.03637-1.47811,.93498-2.45079-.27814-4.90507-.53669-7.34424-.89611-.46715-.06884-.99495-.47333-1.28596-.87445-2.89755-3.99384-5.75093-8.01972-8.61823-12.03553-.16498-.23106-.34246-.45318-.55101-.72808l-7.12049,3.97339c.12358,.80218,.22771,1.53907,.35729,2.27147,.02833,.16014,.1172,.33276,.22923,.45147,2.52084,2.67137,4.40489,5.74196,5.7513,9.24143,1.58595-.25909,3.15015-.51528,4.71465-.76961,.28633-.04655,.57279-.09631,.8611-.12593,.89325-.09179,1.28699,.20634,1.40312,1.12723,.37032,2.93641,.71929,5.8755,1.08221,8.81285,.75075,6.07633,1.49909,12.15298,2.2769,18.22584,.03689,.28802,.29357,.61494,.54097,.79781,1.3536,1.00047,2.73851,1.95849,4.10816,2.93738,.76624,.54764,.94886,1.10624,.56165,1.66152-.39654,.56865-.97825,.59621-1.74817,.0556-1.54395-1.08412-3.06689-2.19883-4.62745-3.25826-.55746-.37844-.81852-.84708-.89621-1.49512-.53199-4.4368-1.07707-8.87203-1.62221-13.30725-.53097-4.31998-1.06669-8.63937-1.60336-12.95865-.01028-.08271-.05801-.16077-.13496-.36484l-4.15137,.66384c.29578,1.48159,.63735,2.88698,.85091,4.31156,1.46452,9.76978-1.48728,18.09978-8.3144,25.12045-3.76714,3.87392-8.19677,6.81011-13.09682,9.06841-.86653,.39937-1.58401,.41274-2.45337-.01393-6.18455-3.03526-11.6266-7.00961-15.85498-12.50411-5.7351-7.45235-7.2346-15.77439-4.96205-24.83828,.08369-.33379,.16794-.66744,.28484-1.13186l-4.28563-.70371c-.21673,1.69694-.42598,3.29636-.62457,4.8971-.85738,6.91091-1.76376,13.81648-2.52575,20.73792-.16444,1.49365-.72653,2.43811-1.96704,3.19031-1.26266,.76561-2.42746,1.69212-3.63932,2.54218-.82748,.58045-1.41331,.56843-1.8152-.02204-.38102-.5598-.19876-1.09906,.5812-1.65575,1.32296-.94426,2.67503-1.85,3.96308-2.83934,.33757-.25928,.64274-.74656,.69576-1.16313,1.12853-8.86545,2.21979-17.73566,3.31558-26.60527,.13824-1.11896,.49395-1.42784,1.60674-1.2613,1.77564,.26575,3.54577,.56822,5.33309,.85757Zm1.23707,3.18009c.35436,.17752,.66722,.39919,1.01489,.49651,1.14193,.31962,2.28297,.67315,3.4485,.8724,5.3395,.9128,10.73361,1.07681,16.1354,1.04706,5.22673-.02878,10.44762-.20635,15.59559-1.21806,1.20022-.23587,2.36138-.67047,3.58581-1.02683-1.15171-4.05963-2.9182-7.52111-5.63386-10.57572-1.61245,2.15904-3.8082,3.29923-6.21074,4.07116-3.73226,1.19917-7.56533,1.44035-11.44449,.99918-2.72852-.31031-5.39274-.91816-7.75924-2.36523-1.16217-.71065-2.17685-1.66252-3.30176-2.5391-2.56173,2.90592-4.33071,6.34448-5.4301,10.23864Zm-.82324,11.41894c.30071,2.32197,.98682,4.67518,2.0718,6.89902,.2029,.41586,.64883,.82779,1.07919,.99953,2.89006,1.15331,5.9587,1.57028,9.02179,1.70037,4.8648,.20662,9.74754,.34776,14.60879,.15895,3.36848-.13082,6.71506-.85282,10.06852-1.33104,1.67205-.23844,2.75725-1.12416,3.1736-2.83471,.46874-1.92584,1.03995-3.82673,1.53597-5.62731-13.97389,2.51985-27.72672,2.5234-41.55966,.03519Zm.33766-9.17211c-.06274,.24999-.15915,.49715-.18286,.75111-.14015,1.50133-.30129,3.00223-.38113,4.50721-.07186,1.3547-.05488,1.47038,1.29573,1.76913,2.34515,.51874,4.70843,1.06011,7.09282,1.27837,9.24644,.8464,18.49913,.8818,27.72279-.32651,1.71303-.22441,3.3904-.74174,5.07006-1.17841,.25925-.0674,.63734-.43689,.62942-.65463-.07453-2.0481-.22105-4.09357-.34601-6.12714-1.50032,.3844-2.7701,.79084-4.07068,1.0293-6.57396,1.20531-13.22256,1.34247-19.87368,1.16451-5.70655-.15268-11.42833-.34005-16.95645-2.21294Zm3.79611,19.74435c1.46939,2.21615,3.14863,4.13432,5.06662,5.82617,.55583,.4903,1.30211,.91566,2.02035,1.04719,6.19144,1.13379,12.4075,1.07686,18.61754,.14838,.7725-.1155,1.70269-.32276,2.21338-.83374,1.71668-1.71767,3.28007-3.58892,4.89224-5.41015,.19365-.21875,.32661-.49121,.52438-.79514-11.16792,2.06053-22.19811,2.06643-33.33451,.01729Zm17.08221-29.19567c.87409-.0794,2.29839-.14136,3.69899-.35713,1.13938-.17552,2.26762-.48039,3.36992-.82629,1.64379-.51581,3.19553-1.24316,4.40237-2.52512,1.29841-1.37923,1.33188-2.94072-.06459-4.21246-.86229-.78526-1.95482-1.31737-2.94245-1.96546-.46469-.30493-.73092-.14137-1.05592,.28605-1.43606,1.88855-3.3101,3.22184-5.48051,4.15704-1.5675,.67541-3.13604,.73765-4.72286,.06965-2.26013-.95144-4.19091-2.33585-5.72933-4.2624-.15668-.19621-.59418-.42888-.71613-.35176-1.21191,.76648-2.50817,1.465-3.53433,2.44152-1.04279,.99235-1.02704,2.40389-.02353,3.4471,.84388,.87726,1.87492,1.6547,2.96103,2.20324,2.90606,1.46771,6.07997,1.81658,9.83734,1.89602Zm-.52678-14.07296c1.42224,0,2.84453,.00783,4.2667-.00186,2.03665-.01388,3.22324-1.26237,3.22525-3.37665,.00203-2.13541-1.1686-3.40466-3.1856-3.41362-2.87344-.01277-5.74702-.01258-8.62047-.00002-1.98619,.00868-3.1734,1.26689-3.17946,3.33005-.00633,2.15439,1.14947,3.43786,3.13982,3.45889,1.4511,.01534,2.90249,.003,4.35376,.00321Zm-7.07498,1.60321c.19426,.41619,.3587,.99562,.69438,1.44797,1.36962,1.84563,3.17547,3.13362,5.36824,3.80963,.5798,.17874,1.30009,.21567,1.87416,.04419,2.34596-.70075,4.2693-2.06066,5.68159-4.07729,.27108-.38708,.371-.89403,.50348-1.22853-4.74587,.4964-9.36579,.49-14.12186,.00403Zm6.98812-10.49003c1.0127,0,2.02572,.01595,3.03801-.0045,1.00463-.0203,1.79522-1.25593,1.36739-2.10382-.48509-.96136-3.53946-2.58826-4.57569-2.25537-1.19406,.38359-2.33914,.95773-3.44607,1.55859-.56375,.30601-.97074,.89054-.66927,1.61452,.30187,.72491,.7547,1.2658,1.68238,1.20321,.8641-.0583,1.73522-.01245,2.60325-.01262Zm-6.59239,61.80174l-.12939,.16073c2.19078,1.21462,4.37568,2.44017,6.58248,3.62493,.19544,.10492,.5743,.01794,.79929-.10531,2.03015-1.11205,4.04455-2.25284,6.06504-3.38256,.15837-.08855,.32794-.15703,.62532-.2978h-13.94274Z"/><path class="c" d="M76.40567,40.46926s2.66729,2.00047,3.50082,4.16764,2.16717,.50012,2.66729,5.83469,0,7.16834,0,7.16834l5.50128,2.66729s3.0007,7.50175,3.83423,8.16857,4.83446,6.83493,4.66775,12.50291c-.16671,5.66799-3.1674,19.00443-9.50221,25.50594-6.33481,6.50151-12.33621,7.50175-12.33621,7.50175,0,0-19.67125-11.16927-19.67125-17.33737s-3.33411-15.33691-1.66706-19.33784,5.00117-12.83632,7.16834-14.50338,4.81459-5.26856,4.81459-5.26856c0,0-1.14707-2.90001,1.52022-6.56753s2.50058-3.0007,2.66729-3.66752,.66682-5.00117,.66682-5.00117l6.1681-1.83376Z"/><path class="b" d="M75.0201,115.37611c-.56016,0-1.115-.14303-1.69792-.4287-6.89032-3.3818-12.19995-7.57321-16.23258-12.81322-5.81022-7.55007-7.54381-16.21475-5.15238-25.75278l.00057-.0019-2.03879-.33461-.05937,.46247c-.14549,1.13018-.28681,2.22886-.4232,3.32831-.21814,1.75843-.43951,3.51648-.66069,5.27454-.63717,5.0617-1.29616,10.29565-1.86333,15.4484-.20316,1.84417-.96704,3.07488-2.47698,3.98995-.81434,.49395-1.58221,1.05506-2.39503,1.64955-.39323,.28719-.78646,.57476-1.18462,.85399-.73069,.51216-1.38967,.70565-2.01812,.59108-.36231-.06601-.88187-.27391-1.29957-.88813-.27164-.39873-1.01447-1.8051,.84507-3.13179,.41884-.29895,.8409-.59449,1.26277-.88965,.88794-.62143,1.80623-1.2641,2.67008-1.92726,.13923-.10699,.27221-.34789,.2851-.44843,1.0046-7.89227,1.99611-15.92187,2.95519-23.68742l.35984-2.91365c.07531-.61004,.24223-1.37108,.86821-1.84645,.62105-.47195,1.37431-.43098,1.96159-.3441,1.25746,.18855,2.5318,.39835,3.76422,.60094,.25722,.04249,.51463,.0846,.77223,.12709,.04344-.09902,.08669-.19804,.12975-.29706,.34713-.7967,.70641-1.62072,1.19714-2.38783,.7341-1.14725,1.52985-2.26604,2.29943-3.34804,.50515-.7102,1.02774-1.44468,1.52208-2.1731,.23901-.35169,.40954-.82895,.55067-1.24854,.09636-.28643,.17224-.60018,.24793-.93138l-5.57975-3.11889-1.88173,2.55286c-2.19662,2.9789-4.46816,6.05948-6.67976,9.10325-.72139,.99246-1.54731,1.47997-2.67862,1.58088-1.53536,.13696-3.10144,.33689-4.61612,.53037-.63983,.08157-1.27965,.16313-1.91986,.24053-.16807,.02049-.33765,.03339-.50685,.04211-1.01067,.05273-1.60232-.29099-1.92062-.59032-.38109-.35776-.59354-.8593-.59828-1.41168-.00531-.59639,.19899-2.00693,2.20231-2.22773,.88111-.09712,1.76166-.19955,2.64201-.30237,1.22578-.14303,2.45137-.28605,3.67886-.4139,.29326-.03035,.41523-.10167,.59354-.34675,2.35084-3.22929,4.75782-6.49918,7.08551-9.66094l1.93465-2.62873c1.11993-1.52208,1.96671-1.7057,3.6248-.78266,1.85574,1.03268,3.70978,2.06915,5.5052,3.07261l1.56134,.87258,.47726-.26595c.90881-.50458,1.76868-.9826,2.60938-1.48148,.01385-.02845,.03073-.06905,.04382-.11609,.0074-.03414,.00948-.14492,.011-.22611,.00455-.22839,.01062-.541,.12425-.8684,.03073-.08878,.04628-.15251,.05406-.19576-.05786-.03414-.16465-.08688-.3515-.15099-1.76071-.60435-3.44668-1.31076-5.00631-1.98454-.6311-.27278-1.21459-.78039-1.56115-1.35781-.60246-1.00308-1.19088-2.03121-1.75995-3.02557-.56433-.98639-1.14801-2.00617-1.74003-2.9918-.21587-.35927-.5501-.71324-.91677-.97046-1.52322-1.06872-3.10391-2.12188-4.63243-3.14014l-.97254-.64836c-1.3635-.91014-1.32594-2.13098-.83597-2.9698,.39532-.67682,.93005-.92417,1.30905-1.01219,.55788-.13013,1.16584-.00114,1.71291,.36117,2.45687,1.62717,4.68175,3.12648,6.80212,4.58292,.44445,.30502,.70356,.75687,.89268,1.08655l.0478,.08308c.38545,.66468,.76673,1.33163,1.14801,1.99896,.72689,1.27207,1.47845,2.58738,2.24594,3.85641,.11685,.19348,.38507,.41201,.65216,.53151,.78096,.35055,1.58581,.66164,2.43373,.98601,.3606-1.93636,1.40769-3.3966,3.12762-4.36023-.46247-1.58885-.06848-3.0635,1.17627-4.40386-.26007-.20259-.49832-.36876-.72803-.46095-2.54849-1.02281-5.16262-2.01945-7.69044-2.98383-.94675-.36079-1.8933-.72196-2.8391-1.08503-.03433-.0129-.07303-.02276-.11173-.03376-.27012-.07739-.77299-.22118-1.05506-.71286l-.05254-.09067c-.28055-.48333-.66506-1.14497-.53379-1.88401,.09731-.54745,.40442-1.00346,.8648-1.28458,.49414-.30199,1.12809-.36648,1.73965-.17869,.41732,.12823,.8132,.2834,1.19619,.43325l.33974,.13202c.91507,.35093,1.829,.70451,2.74293,1.05809,2.15489,.83388,4.38318,1.69621,6.58492,2.50202,1.04425,.38242,2.35027,.99246,3.27368,2.33813,1.64803-.77432,3.3782-.76635,5.02206,.02428,.93043-1.35818,2.29431-1.99251,3.39167-2.39465,2.35766-.86423,4.74283-1.78992,7.04966-2.68526,.9475-.36762,1.89482-.73524,2.84327-1.09983,.06393-.02466,.12823-.04553,.19254-.06563l.06127-.01973c.8832-.33461,1.6063-.36193,2.20952-.08195,.3331,.15441,.78077,.48068,1.02073,1.15711,.16238,.45829,.52165,2.01945-1.68388,2.8685-1.38076,.53151-2.76303,1.05961-4.14531,1.58771l-2.35292,.89989c-.36933,.14151-.74093,.27885-1.11235,.41618-.91886,.33993-1.78651,.66088-2.63385,1.04557-.3496,.15896-.69579,.37293-1.07384,.62181,.86214,.93138,1.71917,2.3882,1.15484,4.36061,1.67762,.96477,2.71409,2.36468,3.09518,4.17964,1.01978-.33613,1.98891-.65671,2.95633-1.00384,.04401-.06449,.09864-.1582,.12937-.21056,.51349-.88016,1.02262-1.76298,1.53175-2.6458,.65102-1.12866,1.30185-2.25732,1.96216-3.38029,.33082-.56224,.68839-.97122,1.093-1.24968,2.05492-1.41471,4.26045-2.9182,6.46769-4.3314,.69844-.44653,1.63532-.40518,2.2245-.23408,.88661,.2576,1.28667,1.46403,1.16223,2.14919-.12785,.70261-.66335,1.29293-1.12183,1.61123-.9826,.68175-1.97468,1.34908-2.96676,2.01641-.93461,.62863-1.86921,1.25727-2.79566,1.89804-.23901,.16503-.46816,.41011-.61365,.65595-.48732,.8244-.96268,1.656-1.43804,2.48722-.6808,1.19088-1.38474,2.42235-2.11771,3.61816-.40006,.65254-1.11709,1.23906-1.8713,1.5308-1.12487,.43591-2.27894,.81263-3.39508,1.17684-.47442,.15479-.94883,.30958-1.42173,.46892-.09181,.03073-.14511,.05653-.17262,.0717-.03566,.13089-.05179,.4674-.05824,.60094-.04382,.91545,.24982,1.29217,1.36615,1.75388,.69996,.28909,1.28819,.73183,1.85726,1.15977,.06279,.04742,.12614,.09485,.18988,.14265l7.07034-3.94556c1.70475-.95225,2.56727-.76256,3.69157,.81453l1.94338,2.7213c2.23418,3.12724,4.54423,6.36108,6.7896,9.56344,.24091,.34334,.43193,.45564,.85209,.49965,1.07839,.11268,2.15545,.24015,3.23252,.368,.96989,.11495,1.93978,.22991,2.9108,.33386,2.00446,.21511,2.20667,1.62868,2.2006,2.22659-.00588,.57818-.23692,1.09755-.65026,1.46289-.346,.30578-.97653,.64571-2.02134,.52658l-1.20036-.13506c-2.02571-.22725-4.12046-.46209-6.17917-.76559-.86821-.12785-1.61901-.78342-1.99782-1.30621-2.20155-3.03429-4.41296-6.13687-6.55134-9.1374l-2.04259-2.86395-5.65563,3.15607c.07512,.49775,.14777,.97577,.23123,1.45151,2.38289,2.53465,4.22403,5.40163,5.61086,8.74132l3.98768-.65064c.2667-.04363,.53379-.0865,.80239-.11419,1.47447-.15289,2.3901,.57969,2.57657,2.06004,.22478,1.78082,.4416,3.56277,.65823,5.3451,.14075,1.15673,.2815,2.31347,.42434,3.46982l.17072,1.38209c.67947,5.50065,1.38209,11.18795,2.09798,16.77851,.02447,.03794,.07455,.09712,.12235,.1324,.90179,.66657,1.83772,1.32821,2.74293,1.96823,.45108,.31906,.90198,.63812,1.35136,.95908,1.48281,1.05961,1.39461,2.32067,.81738,3.14773-.42225,.60587-.94409,.8096-1.30735,.87371-.60967,.10699-1.25992-.07929-1.93636-.55428-.55181-.38735-1.10077-.77849-1.64974-1.17001-.96799-.68972-1.96899-1.40295-2.96373-2.07825-.79727-.54138-1.24171-1.27889-1.35875-2.25466-.53189-4.4361-1.07687-8.87031-1.62185-13.30452-.50135-4.07873-1.00688-8.15632-1.51335-12.23391l-2.03386,.32513,.06203,.29099c.20695,.97197,.42092,1.97696,.57135,2.98004,1.48054,9.87567-1.4149,18.63217-8.60607,26.02707-3.69005,3.79419-8.07873,6.83455-13.41682,9.29446-.58387,.26936-1.13264,.40404-1.67668,.40404Zm-2.97321-6.00143c1.00593,.55617,2.02134,1.11386,3.03164,1.6579,.99815-.54707,1.99346-1.10134,2.98801-1.6579h-6.01964Zm-11.18283-9.21972c1.0156,1.27093,2.127,2.43525,3.35999,3.52293,.45981,.40556,1.03609,.71058,1.50406,.79632,5.81364,1.0653,11.78794,1.11197,18.26569,.14265,1.05164-.15706,1.45815-.37559,1.61389-.53113,1.24058-1.24171,2.43032-2.60028,3.58174-3.91901-9.51412,1.47465-18.83134,1.47086-28.32536-.01176Zm-5.24665-10.75622c.35548,1.7664,.93593,3.4812,1.73225,5.11406,.08536,.17452,.32968,.40025,.51254,.47309,2.40471,.95983,5.15958,1.47617,8.67019,1.62527,4.61612,.19652,9.57084,.35169,14.52157,.15858,2.31916-.08991,4.69958-.47992,7.00167-.8574,.96723-.15858,1.96747-.32247,2.95728-.4636,1.29938-.18514,1.98227-.79139,2.28293-2.02665,.33329-1.36919,.71589-2.72016,1.08579-4.02637-13.06399,2.17499-25.77838,2.17575-38.76422,.00304Zm-.4803-4.62314c.11381,.03225,.27353,.07132,.47821,.11647l.38052,.08422c2.15849,.4784,4.39058,.97273,6.57828,1.17305,9.91532,.90748,18.90551,.80239,27.48579-.32172,1.27946-.16769,2.53446-.50685,3.86343-.86575,.29649-.08005,.59278-.1601,.88908-.23825-.05899-1.45644-.15308-2.93186-.24432-4.3625l-.00341-.05577-.13202,.03642c-.94371,.25912-1.83526,.5042-2.75734,.67302-7.25244,1.33011-14.54946,1.33087-20.09563,1.18177-5.01751-.1343-10.65909-.28492-16.09411-1.89577l-.03699,.38697c-.11192,1.16318-.22763,2.36544-.28985,3.53925-.00873,.16503-.02049,.38545-.02162,.54859Zm1.28117-8.65406l.02371,.00721,.60644,.17186c.94106,.26822,1.82976,.52165,2.73287,.67606,5.58999,.95566,11.19819,1.05847,15.949,1.03154,4.96914-.02732,10.27345-.19159,15.39472-1.19809,.75952-.1491,1.51601-.38849,2.31707-.64191,.04723-.01518,.09447-.02997,.1417-.04477-1.01238-3.18604-2.40205-5.83754-4.30237-8.20488-1.89634,1.97696-4.21246,2.89809-5.88022,3.43378-3.65496,1.17494-7.65705,1.52549-11.89398,1.04368-2.15337-.24508-5.34586-.77242-8.19748-2.51568-.86176-.52696-1.63855-1.16849-2.38953-1.7884-.06924-.05729-.13885-.11457-.20847-.17224-1.87319,2.33357-3.31389,5.08561-4.29346,8.20184Zm9.92101-15.41729c-.08934,.05501-.17888,.10964-.26841,.16427-.95149,.58197-1.85005,1.13131-2.57638,1.82255-.28435,.2705-.43837,.58425-.44558,.90672-.00778,.34903,.14986,.70186,.45583,1.01978,.77223,.80277,1.72106,1.50918,2.6716,1.98948,2.69949,1.3635,5.67915,1.69963,9.31779,1.77968,.22687-.01973,.4875-.0387,.77261-.05956,.80998-.05918,1.81799-.13278,2.79907-.28416,.93214-.14341,1.95268-.39418,3.21203-.78949,1.77835-.55769,3.03126-1.26865,3.94253-2.23683,.32513-.34524,.70793-.87637,.68592-1.44696-.01612-.41808-.24868-.83426-.69161-1.23754-.51216-.46664-1.14725-.84716-1.8197-1.25044-.23825-.14265-.4765-.28567-.71077-.43287-1.44999,1.85442-3.40096,3.31845-5.80188,4.35302-1.88135,.80998-3.75322,.8354-5.56344,.07284-2.40243-1.01105-4.41296-2.48039-5.97962-4.37047Zm3.48613-2.46939c1.1886,1.4333,2.6938,2.43752,4.48163,2.98877,.40878,.12595,.91165,.14303,1.2512,.04097,1.87338-.55959,3.42733-1.57823,4.62921-3.03277-3.44858,.26253-6.86813,.26367-10.36204,.00304Zm-3.6578,2.25846l.00436,.00531-.00436-.00531Zm-1.33371-3.87538l-.00095,.00076,.00095-.00076Zm10.19758-6.95975c-1.43861,0-2.88766,.00304-4.33747,.00948-1.74003,.00759-2.10879,1.23375-2.11183,2.26073-.00455,1.56684,.69484,2.36848,2.07882,2.38327,.99986,.01138,1.99972,.00835,2.99996,.00531l1.34244-.00228,1.31949,.00152c.98013,.0019,1.96026,.00379,2.93982-.00341,1.43197-.00948,2.15868-.78494,2.16001-2.30512,.00152-1.54636-.71096-2.33357-2.1179-2.34002s-2.83493-.00948-4.27335-.00948Zm.08214-6.49614c-.02637,0-.05084,.00152-.07322,.00455-1.12335,.36307-2.26472,.94807-3.22872,1.47124-.14663,.07967-.20581,.16541-.21075,.18779-.00038,.00455,.00209,.02921,.02011,.07246,.23787,.57135,.3993,.55997,.61991,.54517,.64533-.04363,1.28155-.03301,1.89653-.02352,.5704,.00948,1.13966,.00873,1.70873,.01138,.68649,.00341,1.39555,.00607,2.0866-.00721,.10888-.00228,.2557-.11268,.34884-.26291,.09409-.15137,.09181-.2667,.08271-.28605-.33765-.57362-2.52175-1.71291-3.25073-1.71291Zm-26.02915-4.10187v0Zm9.0951-3.67431l.00341,.00607-.00341-.00607Z"/><rect x="12.27409" y="69.51089" width="122.47327" height="9.99971" transform="translate(-29.61356 56.59264) rotate(-35.5302)"/></svg>