<?xml version="1.0" encoding="UTF-8"?>
<svg id="a" xmlns="http://www.w3.org/2000/svg" viewBox="0 0 150 150"><defs><style>.b{fill:#fff;}.c{fill:#a81411;}.d{fill:#e92c18;}</style></defs><circle class="d" cx="75.0398" cy="75.47086" r="62.05795"/><path class="c" d="M81.68056,57.63346c.97461-.05717,1.89333-.24273,2.77609-.1346,1.67808,.20554,2.76452-.36895,3.70614-1.80522,1.43119-2.18301,3.09026-4.21805,4.67795-6.29653,1.03362-1.35315,2.38393-1.60794,3.50625-.71684,1.08137,.85858,1.18641,2.15388,.20848,3.48398-2.18035,2.96551-4.34198,5.94756-6.62817,8.83013-.46445,.5856-1.41051,.90487-2.19502,1.08842-.78105,.18275-1.63828,.03249-2.46195,.04202-1.77526,.02055-2.37065,.91499-1.67103,2.5116,.17287,.39451,.37692,.77536,.6325,1.29686,.76197-.36144,1.50306-.67313,2.20604-1.05499,1.33289-.72401,2.4569-.54679,3.51644,.56725,1.60243,1.68485,3.31135,3.26964,4.8882,4.97712,.83956,.90909,1.80936,1.35239,2.99053,1.57099,2.9494,.54585,5.89099,1.13685,8.82676,1.75241,1.58336,.33199,2.41036,1.43295,2.16454,2.73958-.26164,1.39071-1.51081,2.12485-3.11955,1.80743-3.70247-.73053-7.40888-1.44376-11.09759-2.23873-.61165-.13182-1.22872-.54998-1.6939-.99277-1.50841-1.43578-3.00523-2.89282-4.39157-4.44439-.84709-.94805-1.59018-1.13452-2.60357-.1854,.45479,1.99945,.89509,4.06854,1.41996,6.11594,.09109,.35529,.49242,.69125,.83117,.91269,1.74238,1.13895,3.4847,2.28258,5.27948,3.33516,1.28283,.75234,1.63938,1.79115,1.39324,3.1814-.65797,3.71643-1.34991,7.42885-1.88752,11.16313-.13362,.9281,.05431,2.03371,.45791,2.88551,1.86476,3.93558,3.86285,7.80789,5.80181,11.7085,.59155,1.19002,.45424,2.2852-.6476,3.10003-.99071,.73265-2.02908,.62171-2.91154-.20083-.37353-.34817-.60847-.86494-.8466-1.33535-2.18517-4.31634-4.38091-8.62773-6.50582-12.9737-.29637-.60616-.39779-1.41802-.29578-2.09007,.53002-3.49163,1.02869-6.99718,1.80033-10.43914,.39015-1.74029-.45065-2.20938-1.54105-2.63223-.40062,3.67372-.57683,7.34947-1.23572,10.93657-1.81137,9.86147-6.50369,18.25161-13.54761,25.34775-1.23527,1.24443-2.51928,1.19097-3.78786-.11116-9.464-9.71441-14.36739-21.30713-14.37073-34.91597-.0001-.4149-.00001-.8298-.00001-1.41433-1.36563,.62432-2.22993,1.08459-1.83916,2.81595,.77656,3.44065,1.26726,6.94782,1.80602,10.43832,.09734,.63064,.02622,1.39469-.24997,1.95862-2.21353,4.51978-4.4847,9.01152-6.76205,13.49977-.68249,1.34507-1.79054,1.85084-2.94963,1.44397-1.45608-.5111-1.96345-1.97317-1.1692-3.58252,1.84153-3.73137,3.66733-7.47224,5.60874-11.15162,.68182-1.29219,.76981-2.50402,.50773-3.89324-.67268-3.56562-1.24582-7.15005-1.85505-10.7276-.22865-1.34268,.22185-2.31305,1.4418-3.02219,1.79851-1.04543,3.54588-2.18185,5.28093-3.33099,.36326-.24059,.72995-.66531,.83608-1.07266,.51073-1.96016,.93274-3.94344,1.38659-5.92009-.95283-1.04967-1.74382-.82043-2.60644,.18119-.88294,1.02521-2.01624,1.84518-2.83711,2.91119-1.46024,1.89635-3.38448,2.69341-5.67044,3.05387-2.86569,.45185-5.70151,1.09343-8.54975,1.6555-1.72108,.33965-2.99215-.36286-3.24369-1.79781-.2383-1.35939,.63081-2.39279,2.33263-2.74314,3.12804-.64397,6.26444-1.24932,9.38254-1.93786,.61954-.1368,1.2805-.46091,1.73718-.89394,1.75735-1.66636,3.45355-3.39831,5.14555-5.13217,1.53609-1.5741,2.13122-1.69714,4.05544-.73885,.60479,.30119,1.22365,.57414,1.95086,.91359,.2569-.54555,.52602-1.04919,.73596-1.5764,.50525-1.26877-.10329-2.22572-1.49577-2.22158-5.09985,.01516-3.65535,.45671-6.86314-3.69919-1.56847-2.03205-3.09648-4.0957-4.62259-6.15999-1.05147-1.42228-.98643-2.71227,.13574-3.59594,1.16125-.91444,2.4894-.61775,3.59841,.8408,1.46588,1.92789,3.02462,3.79901,4.32671,5.83326,1.05438,1.64726,2.27867,2.46217,4.26266,2.14427,.73319-.11748,1.51707,.08142,2.37612,.14308,.90127-1.046,1.92663-2.18598,2.89159-3.37498,.56575-.69709,.30875-2.96816-.38272-3.95685-4.85745-6.94532-9.71799-13.88848-14.57659-20.83299-.24975-.35698-.52853-.70037-.72877-1.08402-.59892-1.14757-.38712-2.17181,.61361-2.97885,.97225-.78408,2.24286-.6416,3.1283,.32581,.32486,.35494,.58399,.77148,.86164,1.16795,4.52707,6.46429,8.88535,13.06672,13.25872,19.31448,3.28932,0,6.54459-.13685,9.94339-.13685,.42807-.60351,1.07147-1.50016,1.70418-2.4043,3.94297-5.63457,7.88209-11.27186,11.82782-16.9045,.30459-.4348,.59404-.90572,.98815-1.24715,.91921-.79635,1.95128-.85839,2.91754-.1018,.89132,.69792,1.19519,1.63608,.70879,2.71308-.19704,.43632-.47969,.83875-.75598,1.23381-4.85738,6.94534-9.72047,13.88668-14.58065,20.83006-1.16767,1.66816-1.01651,3.38062,.35317,4.91701,.70632,.7923,1.32344,1.66414,1.99048,2.51226Zm-9.71045,11.62127c-1.53042-.16337-2.93693-.22891-4.30837-.4834-1.4068-.26105-2.77932-.70688-4.1541-1.06848-7.00272,15.47942-3.30776,35.27642,8.33664,46.89737,1.43285-1.90994,2.85145-3.78945,4.24997-5.68376,.13169-.17837,.19581-.45094,.19221-.67821-.05286-3.33807,.1295-6.70419-.24171-10.00772-.72943-6.49155-1.76375-12.94899-2.68219-19.41909-.45433-3.20064-.93149-6.39804-1.39246-9.55671Zm4.62944-.61241c1.43055,10.01537,2.84287,19.90315,4.25519,29.79093,3.57235-10.46196,3.18775-20.70295-1.02869-30.82232l-3.22651,1.03138Zm-5.00468-3.9095c2.00482-.45159,4.07182-.89069,6.12004-1.40464,.34131-.08564,.82363-.46792,.86212-.76259,.25177-1.92734-2.64468-5.094-4.58082-5.09505-1.30701-.00071-2.63859,.15991-3.91554-.03603-2.14674-.3294-3.36457,.72035-4.27971,2.42399-.27413,.51032-.51956,1.036-.79059,1.54806-.5757,1.08765-.38968,1.82531,.9154,2.10041,1.83522,.38685,3.66662,.79187,5.66909,1.22585Zm2.35254-14.1576h-4.52815v2.13439h4.52815v-2.13439Z"/><path d="M74.13392,149.43842c-1.1826-.8219-1.52914-1.94676-1.48065-3.37018,.09209-2.70284,.02667-5.41103,.02667-8.2474-16.33203-.92531-30.45319-6.85624-42.00984-18.38447-11.57217-11.5437-17.5335-25.65604-18.48603-42.11556-2.76034,0-5.50775-.06414-8.25005,.0264-1.42259,.04698-2.54951-.29691-3.37169-1.48039v-1.74478c.8189-1.19032,1.94895-1.5278,3.37094-1.4802,2.70299,.09049,5.41116,.02622,8.24284,.02622,.93419-16.34076,6.85714-30.46885,18.39961-42.02621,11.55326-11.56816,25.6697-17.52567,42.10422-18.4679,0-2.59037-.00035-5.14656,.00029-7.70274,.00013-.53302-.02587-1.06817,.01193-1.59865,.09845-1.38171,1.04778-2.31365,2.31743-2.31098,1.26799,.00266,2.27007,.93512,2.3016,2.3204,.05621,2.47013,.01949,4.94238,.02143,7.41375,.00046,.57509,.00007,1.15019,.00007,1.86663,16.31964,.93491,30.45206,6.84615,42.00839,18.38532,11.56925,11.5521,17.54331,25.66222,18.48019,42.12037,2.52906,0,5.03417-.00016,7.53929,.00012,.53304,.00006,1.06695-.01772,1.59895,.00632,1.48913,.06727,2.46795,.98554,2.47808,2.3026,.01012,1.31698-.96745,2.30503-2.4463,2.32878-2.6161,.04201-5.23331,.01381-7.85007,.01494-.38353,.00017-.76707,.00003-1.32625,.00003-.88668,16.31286-6.85517,30.42801-18.37595,41.97688-11.53831,11.56642-25.63487,17.59064-42.10634,18.49484,0,2.78116-.06464,5.53008,.02661,8.27382,.04734,1.42341-.29976,2.54857-1.48059,3.37203h-1.74478ZM17.02704,72.66892c2.94404,0,5.88807-.01842,8.83172,.00736,1.59942,.01401,2.60702,.94627,2.60735,2.31654,.00034,1.36317-1.01559,2.30064-2.60702,2.31991-2.32552,.02819-4.65162,.00779-6.97748,.00807-.64864,.00007-1.29728,0-1.95207,0,1.439,33.37362,29.50256,55.51229,55.70224,55.5974,.01575-.27978,.0452-.56464,.04573-.84955,.00506-2.71349-.02661-5.42751,.01956-8.14024,.02488-1.46225,1.0529-2.43403,2.37303-2.39536,1.26084,.03694,2.168,.98258,2.25267,2.38062,.03218,.53114,.00958,1.06569,.00969,1.59869,.00051,2.50352,.00022,5.00702,.00022,7.51194,30.98915-.95913,55.08883-26.9376,55.65457-55.64166-.46981-.02052-.94278-.05775-1.41585-.05905-2.51965-.00693-5.03979,.02346-7.55884-.01662-1.48889-.02369-2.46267-.9873-2.46687-2.30703-.00422-1.32239,.96696-2.29097,2.45291-2.31807,2.27666-.04154,4.55459-.01284,6.83199-.01376,.74669-.0003,1.49338-.00005,2.24345-.00005-1.43415-33.45155-29.75973-55.59411-55.69651-55.58681-.01475,.28206-.04212,.5671-.04264,.85218-.00504,2.71348,.02621,5.42751-.02044,8.14022-.02402,1.39734-.98467,2.34501-2.24394,2.38204-1.31207,.03857-2.30175-.94326-2.38078-2.39766-.03414-.62813-.00948-1.25952-.00961-1.88943-.00049-2.40596-.0002-4.81192-.0002-7.21943-31.25333,1.06696-55.1555,27.18942-55.6529,55.71974Z"/><path class="c" d="M71.4827,47.21733l-1.37598,5.91655-6.784,21.0106s-6.17598,8.31679-2.15674,15.25123c4.01924,6.93444,5.59462,25.07422,11.60935,25.9804s15.68233-17.75396,16.35046-34.66937-9.4831-31.21848-9.4831-31.21848l-8.15999-2.27093Z"/><path class="b" d="M85.03664,56.5465c.97461-.05717,1.89333-.24273,2.77609-.1346,1.67808,.20554,2.76452-.36895,3.70614-1.80522,1.43119-2.18301,3.09026-4.21805,4.67795-6.29653,1.03362-1.35315,2.38393-1.60794,3.50625-.71684,1.08137,.85858,1.18641,2.15388,.20848,3.48398-2.18035,2.96551-4.34198,5.94756-6.62817,8.83013-.46445,.5856-1.41051,.90487-2.19502,1.08842-.78105,.18275-1.63828,.03249-2.46195,.04202-1.77526,.02055-2.37065,.91499-1.67103,2.5116,.17287,.39451,.37692,.77536,.6325,1.29686,.76197-.36144,1.50306-.67313,2.20604-1.05499,1.33289-.72401,2.4569-.54679,3.51644,.56725,1.60243,1.68485,3.31135,3.26964,4.8882,4.97712,.83956,.90909,1.80936,1.35239,2.99053,1.57099,2.9494,.54585,5.89099,1.13685,8.82676,1.75241,1.58336,.33199,2.41036,1.43295,2.16454,2.73958-.26164,1.39071-1.51081,2.12485-3.11955,1.80743-3.70247-.73053-7.40888-1.44376-11.09759-2.23873-.61165-.13182-1.22872-.54998-1.6939-.99277-1.50841-1.43578-3.00523-2.89282-4.39157-4.44439-.84709-.94805-1.59018-1.13452-2.60357-.1854,.45479,1.99945,.89509,4.06854,1.41996,6.11594,.09109,.35529,.49242,.69125,.83117,.91269,1.74238,1.13895,3.4847,2.28258,5.27948,3.33516,1.28283,.75234,1.63938,1.79115,1.39324,3.1814-.65797,3.71643-1.34991,7.42885-1.88752,11.16313-.13362,.9281,.05431,2.03371,.45791,2.88551,1.86476,3.93558,3.86285,7.80789,5.80181,11.7085,.59155,1.19002,.45424,2.2852-.6476,3.10003-.99071,.73265-2.02908,.62171-2.91154-.20083-.37353-.34817-.60847-.86494-.8466-1.33535-2.18517-4.31634-4.38091-8.62773-6.50582-12.9737-.29637-.60616-.39779-1.41802-.29578-2.09007,.53002-3.49163,1.02869-6.99718,1.80033-10.43914,.39015-1.74029-.45065-2.20938-1.54105-2.63223-.40062,3.67372-.57683,7.34947-1.23572,10.93657-1.81137,9.86147-6.50369,18.25161-13.54761,25.34775-1.23527,1.24443-2.51928,1.19097-3.78786-.11116-9.464-9.71441-14.36739-21.30713-14.37073-34.91597-.0001-.4149-.00001-.8298-.00001-1.41433-1.36563,.62432-2.22993,1.08459-1.83916,2.81595,.77656,3.44065,1.26726,6.94782,1.80602,10.43832,.09734,.63064,.02622,1.39469-.24997,1.95862-2.21353,4.51978-4.4847,9.01152-6.76205,13.49977-.68249,1.34507-1.79054,1.85084-2.94963,1.44397-1.45608-.5111-1.96345-1.97317-1.1692-3.58252,1.84153-3.73137,3.66733-7.47224,5.60874-11.15162,.68182-1.29219,.76981-2.50402,.50773-3.89324-.67268-3.56562-1.24582-7.15005-1.85505-10.7276-.22865-1.34268,.22185-2.31305,1.4418-3.02219,1.79851-1.04543,3.54588-2.18185,5.28093-3.33099,.36326-.24059,.72995-.66531,.83608-1.07266,.51073-1.96016,.93274-3.94344,1.38659-5.92009-.95283-1.04967-1.74382-.82043-2.60644,.18119-.88294,1.02521-2.01624,1.84518-2.83711,2.91119-1.46024,1.89635-3.38448,2.69341-5.67044,3.05387-2.86569,.45185-5.70151,1.09343-8.54975,1.6555-1.72108,.33965-2.99215-.36286-3.24369-1.79781-.2383-1.35939,.63081-2.39279,2.33263-2.74314,3.12804-.64397,6.26444-1.24932,9.38254-1.93786,.61954-.1368,1.2805-.46091,1.73718-.89394,1.75735-1.66636,3.45355-3.39831,5.14555-5.13217,1.53609-1.5741,2.13122-1.69714,4.05544-.73885,.60479,.30119,1.22365,.57414,1.95086,.91359,.2569-.54555,.52602-1.04919,.73596-1.5764,.50525-1.26877-.10329-2.22572-1.49577-2.22158-5.09985,.01516-3.65535,.45671-6.86314-3.69919-1.56847-2.03205-3.09648-4.0957-4.62259-6.15999-1.05147-1.42228-.98643-2.71227,.13574-3.59594,1.16125-.91444,2.4894-.61775,3.59841,.8408,1.46588,1.92789,3.02462,3.79901,4.32671,5.83326,1.05438,1.64726,2.27867,2.46217,4.26266,2.14427,.73319-.11748,1.51707,.08142,2.37612,.14308,.90127-1.046,1.92663-2.18598,2.89159-3.37498,.56575-.69709,.30875-2.96816-.38272-3.95685-4.85745-6.94532-9.71799-13.88848-14.57659-20.83299-.24975-.35698-.52853-.70037-.72877-1.08402-.59892-1.14757-.38712-2.17181,.61361-2.97885,.97225-.78408,2.24286-.6416,3.1283,.32581,.32486,.35494,.58399,.77148,.86164,1.16795,4.52707,6.46429,8.88535,13.06672,13.25872,19.31448,3.28932,0,6.54459-.13685,9.94339-.13685,.42807-.60351,1.07147-1.50016,1.70418-2.4043,3.94297-5.63457,7.88209-11.27186,11.82782-16.9045,.30459-.4348,.59404-.90572,.98815-1.24715,.91921-.79635,1.95128-.85839,2.91754-.1018,.89132,.69792,1.19519,1.63608,.70879,2.71308-.19704,.43632-.47969,.83875-.75598,1.23381-4.85738,6.94534-9.72047,13.88668-14.58065,20.83006-1.16767,1.66816-1.01651,3.38062,.35317,4.91701,.70632,.7923,1.32344,1.66414,1.99048,2.51226Zm-9.71045,11.62127c-1.53042-.16337-2.93693-.22891-4.30837-.4834-1.4068-.26105-2.77932-.70688-4.1541-1.06848-7.00272,15.47942-3.30776,35.27642,8.33664,46.89737,1.43285-1.90994,2.85145-3.78945,4.24997-5.68376,.13169-.17837,.19581-.45094,.19221-.67821-.05286-3.33807,.1295-6.70419-.24171-10.00772-.72943-6.49155-1.76375-12.94899-2.68219-19.41909-.45433-3.20064-.93149-6.39804-1.39246-9.55671Zm4.62944-.61241c1.43055,10.01537,2.84287,19.90315,4.25519,29.79093,3.57235-10.46196,3.18775-20.70295-1.02869-30.82232l-3.22651,1.03138Zm-5.00468-3.9095c2.00482-.45159,4.07182-.89069,6.12004-1.40464,.34131-.08564,.82363-.46792,.86212-.76259,.25177-1.92734-2.64468-5.094-4.58082-5.09505-1.30701-.00071-2.63859,.15991-3.91554-.03603-2.14674-.3294-3.36457,.72035-4.27971,2.42399-.27413,.51032-.51956,1.036-.79059,1.54806-.5757,1.08765-.38968,1.82531,.9154,2.10041,1.83522,.38685,3.66662,.79187,5.66909,1.22585Zm2.35254-14.1576h-4.52815v2.13439h4.52815v-2.13439Z"/><rect x="14.5293" y="69.51089" width="122.47327" height="9.99971" transform="translate(-29.19366 57.90321) rotate(-35.5302)"/></svg>