<?xml version="1.0" encoding="UTF-8"?>
<svg id="a" xmlns="http://www.w3.org/2000/svg" viewBox="0 0 150 150"><defs><style>.b{fill:#fff;}.c{fill:#a81411;}.d{fill:#e92c18;}</style></defs><circle class="d" cx="74.66829" cy="75.07046" r="62.05795"/><path class="c" d="M112.64548,67.60273c-.06836-.26514-.17773-.52783-.32324-.78125-.44043-.76709-.9502-1.54688-1.68555-2.05713-1.49023-1.03516-2.85059-1.77637-4.16211-2.26709-3.00391-1.11865-6.16406-1.29492-9.27441-1.4668l-.48828,.00635c-.22656,.00391-.45508,.00879-.68066,.00293-2.84082-.08887-6.16504,.12402-6.32812,.13574-3.39355,.30664-6.78418,.646-10.17285,.99219-.57812,.05859-1.15332,.13721-1.73633,.22119,.02051-.10645,.03711-.21436,.05078-.32471,.0332-.27441,.10449-.40576,.43359-.59668,1.08008-.62402,2.14355-1.27588,3.20801-1.92822,.62305-.38281,1.24707-.76562,1.875-1.14209,1.06543-.63965,1.48242-1.62354,1.20703-2.84619-.3916-1.72607-.76758-3.45508-1.14453-5.18359-.35938-1.65088-.71875-3.30127-1.09082-4.94922-.09668-.4292-.05664-.69922,.15918-1.07227,1.63867-2.83496,3.24805-5.68604,4.85742-8.5376l.99609-1.76465c.85645-1.51611,.64355-2.5166-.75879-3.56738l-.30859-.23145-1.70801,.19336-.44629,.50439c-.24219,.26367-.51562,.5625-.72461,.93115-2.07129,3.6123-4.21289,7.34814-6.25293,11.06055-.39453,.71289-.54395,1.69873-.37988,2.50879,.63086,3.17627,1.32227,6.25342,2.0957,9.65967,.01465,.06445,.02246,.11084,.02637,.14258-.02539,.01709-.06152,.04004-.11426,.06836-.8252,.44434-1.61523,.93262-2.37891,1.40674-.875-1.67285-2.40039-2.7793-2.47852-2.83545l-.23828-.125c-.50195-.1792-.60742-.32031-.58984-1.41211,.04102-2.57129,.0332-5.18066,.02539-7.70459l-.00586-2.90918c.00098-.28955-.00098-.58105-.04102-.86279-.15039-1.09668-.93555-1.82666-2.0459-1.90527-1.12695-.07959-2.0127,.55225-2.29688,1.60645-.11914,.43408-.12988,.85205-.12988,1.27539-.00684,3.80908-.0127,7.61523,.00488,11.42334,.00098,.07129-.00195,.11816,.00098,.1377-.01465,.00879-.03418,.01953-.06055,.03223-1.36133,.65088-2.40723,1.79053-3.10938,3.38721-.90918-.54688-1.77148-1.06592-2.61426-1.61719l.06543-.31201c.62207-2.97021,1.26562-6.04102,1.97949-9.03662,.28613-1.19727,.13184-2.21631-.49902-3.30518-1.15527-1.99463-2.29199-4.00146-3.42773-6.0083-.87695-1.54883-1.75391-3.09814-2.6416-4.64355-.23242-.40332-.54297-.71533-.81738-.99023-.09473-.09521-.18945-.19043-.2793-.28906l-.2666-.29297-1.64551-.09473-.29785,.25781c-1.35547,1.1709-1.51074,2.04102-.63965,3.57861l1.66797,2.94727c1.41602,2.49854,2.83203,4.99756,4.22363,7.51025,.09277,.1665,.13574,.47852,.09473,.6792-.52051,2.521-1.07227,5.03467-1.62402,7.54785l-.56641,2.58496c-.34082,1.56787-.0127,2.33691,1.34766,3.1626l1.58691,.96338c1.18164,.7168,2.36328,1.43359,3.54102,2.15967,.09961,.06104,.1582,.10352,.19043,.13037,.06152,.2085,.11523,.42383,.16602,.64551l-.37305-.0498c-1.34473-.18164-2.67383-.36084-4.00488-.51855-5.68457-.6748-12.40625-1.25586-19.15332-.45459-3.15918,.375-5.61426,1.07275-7.72559,2.19629-3.08203,1.64111-4.53906,4.27588-4.33203,7.83105,.18848,3.2373,1.8584,5.57959,4.96582,6.9624,2.89551,1.28613,5.95898,1.39258,8.31934,1.33594,4.67188-.10645,9.59668-.99414,15.49707-2.79395,1.62305-.49609,3.24414-1.06689,4.81152-1.61914,.39062-.1377,.78125-.27539,1.17188-.41162l.31543,1.01758-2.30371,.97412c-2.18848,.92676-4.37695,1.85352-6.57227,2.76074-.82422,.34082-1.47656,1.01465-1.78809,1.84473-1.2168,3.21875-2.46973,6.46582-3.72461,9.65039-.11133,.28125-.29004,.53613-.51758,.73535-2.09766,1.8457-4.20215,3.68164-6.30762,5.5166-1.43262,1.24902-2.86523,2.49902-4.32617,3.77832-.37012,.31934-.92773,.80273-.90918,1.5,.0127,.64062,.14453,1.52441,.70508,2.09668,.6543,.66797,1.8125,.9873,3.0918-.12305l3.17285-2.76562c2.7207-2.37012,5.44043-4.74023,8.14844-7.125,.39355-.34766,.72266-.85645,.97852-1.51172,.50293-1.28418,.99902-2.57129,1.49414-3.85938,.70508-1.83008,1.41016-3.66113,2.13672-5.48438,.0459-.11426,.22656-.30957,.38574-.38184,1.21973-.55469,2.45703-1.07031,3.69434-1.58594l2.41211-1.01172c-.80273,1.00977-1.62012,2.00781-2.4375,3.00684-.86523,1.05566-1.72949,2.11133-2.5791,3.18262-.44336,.5625-.74512,1.26367-.8291,1.92578-.3916,3.14062-.73242,6.19043-1.01367,9.06445-.11914,1.21875-.43262,2.1709-1.01465,3.08789-2.3584,3.71875-4.70996,7.52344-6.98438,11.2041l-2.35742,3.81055-.09863,.15137c-.13867,.21094-.31055,.47266-.41895,.79004-.37988,1.10156-.02148,2.1123,.95703,2.70312,.92188,.55859,1.97656,.41895,2.75586-.36816,.25781-.25977,.42969-.5459,.58105-.79883l1.87109-3.0166c2.75781-4.43945,5.51562-8.87793,8.24902-13.33301,.3877-.63281,.65625-1.41992,.75684-2.21875l.21094-1.66602c.14551-1.13965,.29297-2.29688,.42383-3.46289-.0332,.55762-.05762,1.11621-.07227,1.67383-.08301,3.11621,.65234,5.68359,2.24609,7.84668,1.00977,1.37305,1.84277,2.76367,2.47754,4.13477,.55859,1.20508,1.49316,3.22266,3.85156,3.25,.01758,.00098,.03418,.00098,.05078,.00098,1.99219,0,2.95117-1.39551,3.50098-2.44922,.47461-.90918,1.01465-1.81836,1.53809-2.69824,.47461-.79883,.94922-1.59863,1.39062-2.41699l.2002-.37109c.59473-1.09668,1.20996-2.23145,1.52637-3.48242,.35449-1.41406,.5127-2.83008,.54688-4.2334,.05273,.5459,.10156,1.0918,.1416,1.63477,.1748,2.31641,.8623,4.37012,2.10254,6.27734,2.17871,3.3584,4.31641,6.8291,6.38379,10.18652,.86621,1.4043,1.73145,2.80957,2.60254,4.21191l.09375,.15527c.13184,.21973,.28027,.46973,.49414,.7002,.47656,.51758,1.06152,.7832,1.66113,.7832,.39746,0,.80078-.11719,1.18457-.35449,.96289-.5918,1.31543-1.63574,.91797-2.72656-.12012-.3291-.29492-.59961-.44922-.83789l-2.00977-3.23047c-2.62402-4.22363-5.24902-8.44824-7.85742-12.67969-.20312-.33105-.34082-.70508-.37891-1.02734-.17773-1.50684-.34082-3.01465-.50391-4.52246-.20117-1.85645-.40137-3.71191-.62891-5.56641-.09863-.78711-.40625-1.53027-.89062-2.15234-.85938-1.09473-1.74023-2.17188-2.62207-3.24902-.7666-.93652-1.5332-1.87305-2.28418-2.82227,1.83789,.70996,3.78613,1.51953,5.9707,2.48145,.1709,.07422,.37988,.2959,.43066,.42578,.61914,1.54785,1.21777,3.10254,1.81641,4.6582,.58789,1.52734,1.17578,3.05469,1.78223,4.5752,.27832,.69629,.72266,1.3291,1.28613,1.83008,2.2793,2.02441,4.5791,4.02441,6.87891,6.02441l2.20801,1.92285c.63965,.55859,1.27832,1.11719,1.92383,1.66797,.55957,.47852,1.13672,.72852,1.71484,.74512,.64453,.04102,1.23926-.26367,1.68945-.79102,.33203-.38672,1.28223-1.77441-.43652-3.35156-.16211-.15039-.32715-.29492-.49316-.43945l-2.26172-1.96777c-2.62793-2.28516-5.25684-4.57129-7.86914-6.87402-.26465-.2334-.47363-.53027-.60352-.85645-1.41406-3.58008-2.55469-6.54883-3.58984-9.34277-.40234-1.08691-1.08691-1.78711-2.15527-2.20508-1.24805-.48633-2.48047-1.01172-3.71289-1.53711l-4.85156-2.05566,.33496-1.05127c6.53516,2.5835,12.64062,4.11182,18.64941,4.66943,3.04102,.28418,6.62988,.40918,10.17383-.81055,2.04199-.70117,3.53516-1.77637,4.56445-3.28564,.375-.45801,1.99121-2.80127,.67188-7.83691Zm-3.73633,3.40625c-.02051,1.36475-.69238,2.55322-1.75488,3.10254v.00049c-.89648,.46387-1.91797,.81299-2.9541,1.00977-2.91797,.55322-5.88086,.25244-8.64941-.15527-5.48926-.80566-11.00293-2.36182-16.35449-4.60986-.0293-.01904-.0791-.07568-.08887-.07568l-.00098,.00146c-.19727-.97705-.35352-1.96289-.51367-2.979l-.03711-.23291,1.46875-.19678c1.38672-.18799,2.77344-.37598,4.16309-.5249,5.33203-.57031,11.07324-.99707,16.90625-.27051,2.58691,.3208,4.4707,.86914,6.10547,1.77637,1.0918,.60645,1.73047,1.78564,1.70996,3.1543Zm-35.46875-9.95215c-.53809-.15576-1.07422-.2334-1.60645-.2334-.52637,0-1.04883,.07568-1.56641,.22754-.24512-1.19189,.20898-2.86084,1.07031-3.4624,.46484-.32373,.90039-.24951,1.28906,.2207,.75684,.91504,1.02051,1.94287,.81348,3.24756Zm-4.79785,26.04053c.03711-.12305,.07715-.26562,.12402-.44531l.67578-2.88867,.90918-2.64746c1.01074,.2793,2.00977,.28125,3.01758,.00586l.92383,2.60254,.60742,2.53223c.07031,.35645,.13867,.61426,.20605,.84082h-6.46387Zm4.69531-11.40918c-.47754,.72461-1,1.12402-1.4707,1.12598h-.00391c-.46777,0-.99121-.39355-1.47168-1.10938-.80273-1.1958-1.19336-2.66162-1.23145-4.58203,.02637-1.94434,.40527-3.41797,1.19434-4.63721,.47754-.7373,1.00781-1.14453,1.49316-1.14648h.00488c.48438,0,1.01562,.40039,1.49609,1.12793,1.61914,2.45264,1.61426,6.76172-.01074,9.22119Zm-8.1084-8.80127l-.02637,.16846c-.16504,1.04395-.32129,2.03027-.51953,3.01025-.02051,.03516-.06445,.0874-.06348,.0918-5.38281,2.2627-10.89648,3.81885-16.38867,4.62549-2.76562,.40674-5.72949,.70752-8.64648,.15479-1.03516-.19678-2.05664-.5459-2.95508-1.01025-1.0625-.54932-1.73438-1.73779-1.75488-3.10205-.02051-1.36914,.61914-2.54834,1.71191-3.15479,1.63477-.90771,3.51758-1.45557,6.10645-1.77637,2.20117-.27441,4.3877-.38428,6.54492-.38428,3.56055,0,7.03906,.2998,10.35938,.65479,1.40137,.1499,2.79688,.33936,4.19336,.52881l1.43848,.19336Zm2.58105,26.74561c.0127-.28613,.02539-.59277,.03809-.89941,.01367-.34375,.02734-.6875,.04102-1.00098h7.96191c.01562,.29688,.03125,.62305,.04785,.95215,.01562,.32227,.03223,.64648,.04785,.94824h-8.13672Zm.03027,4.57129l8.04688-.00195c-.03613,.24023-.07324,.49121-.10742,.83398l-1.1377,2.41699-2.78125,4.78906-2.74512-4.72949-1.21582-3.01367c-.02637-.11719-.04492-.21094-.05957-.29492Z"/><path d="M74.13392,149.43842c-1.1826-.8219-1.52914-1.94676-1.48065-3.37018,.09209-2.70284,.02667-5.41103,.02667-8.2474-16.33203-.92531-30.45319-6.85624-42.00984-18.38447-11.57217-11.5437-17.5335-25.65604-18.48603-42.11556-2.76034,0-5.50775-.06414-8.25005,.0264-1.42259,.04698-2.54951-.29691-3.37169-1.48039v-1.74478c.8189-1.19032,1.94895-1.5278,3.37094-1.4802,2.70299,.09049,5.41116,.02622,8.24284,.02622,.93419-16.34076,6.85714-30.46885,18.39961-42.02621,11.55326-11.56816,25.6697-17.52567,42.10422-18.4679,0-2.59037-.00035-5.14656,.00029-7.70274,.00013-.53302-.02587-1.06817,.01193-1.59865,.09845-1.38171,1.04778-2.31365,2.31743-2.31098,1.26799,.00266,2.27007,.93512,2.3016,2.3204,.05621,2.47013,.01949,4.94238,.02143,7.41375,.00046,.57509,.00007,1.15019,.00007,1.86663,16.31964,.93491,30.45206,6.84615,42.00839,18.38532,11.56925,11.5521,17.54331,25.66222,18.48019,42.12037,2.52906,0,5.03417-.00016,7.53929,.00012,.53304,.00006,1.06695-.01772,1.59895,.00632,1.48913,.06727,2.46795,.98554,2.47808,2.3026,.01012,1.31698-.96745,2.30503-2.4463,2.32878-2.6161,.04201-5.23331,.01381-7.85007,.01494-.38353,.00017-.76707,.00003-1.32625,.00003-.88668,16.31286-6.85517,30.42801-18.37595,41.97688-11.53831,11.56642-25.63487,17.59064-42.10634,18.49484,0,2.78116-.06464,5.53008,.02661,8.27382,.04734,1.42341-.29976,2.54857-1.48059,3.37203h-1.74478ZM17.02704,72.66892c2.94404,0,5.88807-.01842,8.83172,.00736,1.59942,.01401,2.60702,.94627,2.60735,2.31654,.00034,1.36317-1.01559,2.30064-2.60702,2.31991-2.32552,.02819-4.65162,.00779-6.97748,.00807-.64864,.00007-1.29728,0-1.95207,0,1.439,33.37362,29.50256,55.51229,55.70224,55.5974,.01575-.27978,.0452-.56464,.04573-.84955,.00506-2.71349-.02661-5.42751,.01956-8.14024,.02488-1.46225,1.0529-2.43403,2.37303-2.39536,1.26084,.03694,2.168,.98258,2.25267,2.38062,.03218,.53114,.00958,1.06569,.00969,1.59869,.00051,2.50352,.00022,5.00702,.00022,7.51194,30.98915-.95913,55.08883-26.9376,55.65457-55.64166-.46981-.02052-.94278-.05775-1.41585-.05905-2.51965-.00693-5.03979,.02346-7.55884-.01662-1.48889-.02369-2.46267-.9873-2.46687-2.30703-.00422-1.32239,.96696-2.29097,2.45291-2.31807,2.27666-.04154,4.55459-.01284,6.83199-.01376,.74669-.0003,1.49338-.00005,2.24345-.00005-1.43415-33.45155-29.75973-55.59411-55.69651-55.58681-.01475,.28206-.04212,.5671-.04264,.85218-.00504,2.71348,.02621,5.42751-.02044,8.14022-.02402,1.39734-.98467,2.34501-2.24394,2.38204-1.31207,.03857-2.30175-.94326-2.38078-2.39766-.03414-.62813-.00948-1.25952-.00961-1.88943-.00049-2.40596-.0002-4.81192-.0002-7.21943-31.25333,1.06696-55.1555,27.18942-55.6529,55.71974Z"/><path class="c" d="M75.59362,55.03275l2.72771,1.94837s-.90924,6.62444,.25978,7.66357,3.11738,.38967,5.71521,0,21.6918-1.94837,21.6918-1.94837l7.53368,4.67608,1.03913,4.02662-4.2864,6.36466-14.28801,.25978-8.05324-2.59782-6.23477-2.07826s-2.33804-.51956-2.33804,1.68858,2.59782,6.62444,2.59782,8.7027,.12989,10.65106,.12989,11.82008-2.72771,9.61194-2.72771,9.61194l-3.37717,4.67608-8.44292-11.94997,3.11738-14.54779-1.55869-11.82008-13.89834,5.32553-16.36627-.77935-2.98749-7.66357,6.49455-3.63695,6.36466-1.03913s19.35376,.38967,20.13311,.51956,2.46793-2.98749,2.46793-2.98749l4.2864-6.23477Z"/><path class="b" d="M116.13379,67.69287c-.06836-.26514-.17773-.52783-.32324-.78125-.44043-.76709-.9502-1.54688-1.68555-2.05713-1.49023-1.03516-2.85059-1.77637-4.16211-2.26709-3.00391-1.11865-6.16406-1.29492-9.27441-1.4668l-.48828,.00635c-.22656,.00391-.45508,.00879-.68066,.00293-2.84082-.08887-6.16504,.12402-6.32812,.13574-3.39355,.30664-6.78418,.646-10.17285,.99219-.57812,.05859-1.15332,.13721-1.73633,.22119,.02051-.10645,.03711-.21436,.05078-.32471,.0332-.27441,.10448-.40576,.43359-.59668,1.08008-.62402,2.14355-1.27588,3.20801-1.92822,.62305-.38281,1.24707-.76562,1.875-1.14209,1.06543-.63965,1.48242-1.62354,1.20703-2.84619-.3916-1.72607-.76758-3.45508-1.14453-5.18359-.35938-1.65088-.71875-3.30127-1.09082-4.94922-.09668-.4292-.05664-.69922,.15918-1.07227,1.63867-2.83496,3.24805-5.68604,4.85742-8.5376l.99609-1.76465c.85645-1.51611,.64355-2.5166-.75879-3.56738l-.30859-.23145-1.70801,.19336-.44629,.50439c-.24219,.26367-.51562,.5625-.72461,.93115-2.07129,3.6123-4.21289,7.34814-6.25293,11.06055-.39453,.71289-.54395,1.69873-.37988,2.50879,.63086,3.17627,1.32227,6.25342,2.0957,9.65967,.01465,.06445,.02246,.11084,.02637,.14258-.02539,.01709-.06152,.04004-.11426,.06836-.82521,.44434-1.61523,.93262-2.37891,1.40674-.875-1.67285-2.40039-2.7793-2.47852-2.83545l-.23828-.125c-.50195-.1792-.60742-.32031-.58984-1.41211,.04102-2.57129,.0332-5.18066,.02539-7.70459l-.00586-2.90918c.00098-.28955-.00098-.58105-.04102-.86279-.15039-1.09668-.93555-1.82666-2.0459-1.90527-1.12695-.07959-2.0127,.55225-2.29688,1.60645-.11914,.43408-.12988,.85205-.12988,1.27539-.00684,3.80908-.0127,7.61523,.00488,11.42334,.00098,.07129-.00195,.11816,.00098,.1377-.01465,.00879-.03418,.01953-.06055,.03223-1.36133,.65088-2.40723,1.79053-3.10938,3.38721-.90918-.54688-1.77148-1.06592-2.61426-1.61719l.06543-.31201c.62207-2.97021,1.26562-6.04102,1.97949-9.03662,.28613-1.19727,.13184-2.21631-.49902-3.30518-1.15527-1.99463-2.29199-4.00146-3.42773-6.0083-.87695-1.54883-1.75391-3.09814-2.6416-4.64355-.23242-.40332-.54297-.71533-.81738-.99023-.09473-.09521-.18945-.19043-.2793-.28906l-.2666-.29297-1.64551-.09473-.29785,.25781c-1.35547,1.1709-1.51074,2.04102-.63965,3.57861l1.66797,2.94727c1.41602,2.49854,2.83203,4.99756,4.22363,7.51025,.09277,.1665,.13574,.47852,.09473,.6792-.52051,2.521-1.07227,5.03467-1.62402,7.54785l-.56641,2.58496c-.34082,1.56787-.0127,2.33691,1.34766,3.1626l1.58691,.96338c1.18164,.7168,2.36328,1.43359,3.54102,2.15967,.09961,.06104,.1582,.10352,.19043,.13037,.06152,.2085,.11523,.42383,.16602,.64551l-.37305-.0498c-1.34473-.18164-2.67383-.36084-4.00488-.51855-5.68457-.6748-12.40625-1.25586-19.15332-.45459-3.15918,.375-5.61426,1.07275-7.72559,2.19629-3.08203,1.64111-4.53906,4.27588-4.33203,7.83105,.18846,3.2373,1.8584,5.57959,4.96582,6.9624,2.89551,1.28613,5.95898,1.39258,8.31934,1.33594,4.67188-.10645,9.59668-.99414,15.49707-2.79395,1.62305-.49609,3.24414-1.06689,4.81152-1.61914,.39062-.1377,.78125-.27539,1.17188-.41162l.31543,1.01758-2.30371,.97412c-2.18848,.92676-4.37695,1.85352-6.57227,2.76074-.82422,.34082-1.47656,1.01465-1.78809,1.84473-1.2168,3.21875-2.46973,6.46582-3.72461,9.65039-.11133,.28125-.29004,.53613-.51758,.73535-2.09766,1.8457-4.20215,3.68164-6.30762,5.5166-1.43262,1.24902-2.86523,2.49902-4.32617,3.77832-.37012,.31934-.92773,.80273-.90918,1.5,.0127,.64062,.14453,1.52441,.70508,2.09668,.6543,.66797,1.8125,.9873,3.0918-.12305l3.17285-2.76562c2.7207-2.37012,5.44043-4.74023,8.14844-7.125,.39355-.34766,.72266-.85645,.97852-1.51172,.50293-1.28418,.99902-2.57129,1.49414-3.85938,.70508-1.83008,1.41016-3.66113,2.13672-5.48438,.0459-.11426,.22656-.30957,.38574-.38184,1.21973-.55469,2.45703-1.07031,3.69434-1.58594l2.41211-1.01172c-.80273,1.00977-1.62012,2.00781-2.4375,3.00684-.86523,1.05566-1.72949,2.11133-2.5791,3.18262-.44336,.5625-.74512,1.26367-.8291,1.92578-.3916,3.14062-.73242,6.19043-1.01367,9.06445-.11914,1.21875-.43262,2.1709-1.01465,3.08789-2.3584,3.71875-4.70996,7.52344-6.98438,11.2041l-2.35742,3.81055-.09863,.15137c-.13867,.21094-.31055,.47266-.41895,.79004-.37988,1.10156-.02148,2.1123,.95703,2.70312,.92188,.55859,1.97656,.41895,2.75586-.36816,.25781-.25977,.42969-.5459,.58105-.79883l1.87109-3.0166c2.75781-4.43945,5.51562-8.87793,8.24902-13.33301,.3877-.63281,.65624-1.41992,.75684-2.21875l.21094-1.66602c.14551-1.13965,.29297-2.29688,.42383-3.46289-.0332,.55762-.05762,1.11621-.07227,1.67383-.08301,3.11621,.65234,5.68359,2.24609,7.84668,1.00977,1.37305,1.84277,2.76367,2.47754,4.13477,.55859,1.20508,1.49316,3.22266,3.85156,3.25,.01758,.00098,.03418,.00098,.05078,.00098,1.99219,0,2.95117-1.39551,3.50098-2.44922,.47461-.90918,1.01465-1.81836,1.53809-2.69824,.47461-.79883,.94922-1.59863,1.39062-2.41699l.2002-.37109c.59473-1.09668,1.20996-2.23145,1.52637-3.48242,.35449-1.41406,.5127-2.83008,.54688-4.2334,.05273,.5459,.10156,1.0918,.1416,1.63477,.1748,2.31641,.8623,4.37012,2.10254,6.27734,2.17871,3.3584,4.31641,6.8291,6.38379,10.18652,.86621,1.4043,1.73145,2.80957,2.60254,4.21191l.09375,.15527c.13184,.21973,.28027,.46973,.49414,.7002,.47656,.51758,1.06152,.7832,1.66113,.7832,.39746,0,.80078-.11719,1.18457-.35449,.96289-.5918,1.31543-1.63574,.91797-2.72656-.12012-.3291-.29492-.59961-.44923-.83789l-2.00975-3.23047c-2.62402-4.22363-5.24902-8.44824-7.85742-12.67969-.20312-.33105-.34082-.70508-.37891-1.02734-.17773-1.50684-.34082-3.01465-.50392-4.52246-.20116-1.85645-.40135-3.71191-.62889-5.56641-.09863-.78711-.40625-1.53027-.89062-2.15234-.85938-1.09473-1.74023-2.17188-2.62207-3.24902-.7666-.93652-1.5332-1.87305-2.28418-2.82227,1.83789,.70996,3.78613,1.51953,5.9707,2.48145,.1709,.07422,.37988,.2959,.43066,.42578,.61914,1.54785,1.21777,3.10254,1.81641,4.6582,.58789,1.52734,1.17578,3.05469,1.78223,4.5752,.27832,.69629,.72266,1.3291,1.28613,1.83008,2.2793,2.02441,4.5791,4.02441,6.87891,6.02441l2.20801,1.92285c.63965,.55859,1.27832,1.11719,1.92383,1.66797,.55957,.47852,1.13672,.72852,1.71484,.74512,.64453,.04102,1.23926-.26367,1.68945-.79102,.33203-.38672,1.28223-1.77441-.43652-3.35156-.16211-.15039-.32715-.29492-.49316-.43945l-2.26172-1.96777c-2.62793-2.28516-5.25684-4.57129-7.86914-6.87402-.26465-.2334-.47363-.53027-.60352-.85645-1.41406-3.58008-2.55469-6.54883-3.58984-9.34277-.40234-1.08691-1.08691-1.78711-2.15527-2.20508-1.24805-.48633-2.48047-1.01172-3.71289-1.53711l-4.85156-2.05566,.33496-1.05127c6.53516,2.5835,12.64062,4.11182,18.64941,4.66943,3.04102,.28418,6.62988,.40918,10.17383-.81055,2.04199-.70117,3.53516-1.77637,4.56445-3.28564,.375-.45801,1.99121-2.80127,.67188-7.83691Zm-3.73633,3.40625c-.02051,1.36475-.69238,2.55322-1.75488,3.10254v.00049c-.89648,.46387-1.91797,.81299-2.9541,1.00977-2.91797,.55322-5.88086,.25244-8.64941-.15527-5.48926-.80566-11.00293-2.36182-16.35449-4.60986-.0293-.01904-.0791-.07568-.08887-.07568l-.00098,.00146c-.19727-.97705-.35352-1.96289-.51367-2.979l-.03711-.23291,1.46875-.19678c1.38672-.18799,2.77344-.37598,4.16309-.5249,5.33203-.57031,11.07324-.99707,16.90625-.27051,2.58691,.3208,4.4707,.86914,6.10545,1.77637,1.09181,.60645,1.73048,1.78564,1.70998,3.1543Zm-35.46875-9.95215c-.53809-.15576-1.07422-.2334-1.60645-.2334-.52637,0-1.04883,.07568-1.56641,.22754-.24512-1.19189,.20898-2.86084,1.07031-3.4624,.46484-.32373,.90039-.24951,1.28906,.2207,.75684,.91504,1.02051,1.94287,.81348,3.24756Zm-4.79785,26.04053c.03711-.12305,.07715-.26562,.12402-.44531l.67578-2.88867,.90918-2.64746c1.01074,.2793,2.00977,.28125,3.01758,.00586l.92383,2.60254,.60742,2.53223c.07031,.35645,.13867,.61426,.20605,.84082h-6.46387Zm4.69531-11.40918c-.47754,.72461-1,1.12402-1.4707,1.12598h-.00391c-.46777,0-.99121-.39355-1.47168-1.10938-.80273-1.1958-1.19336-2.66162-1.23145-4.58203,.02637-1.94434,.40527-3.41797,1.19434-4.63721,.47754-.7373,1.00781-1.14453,1.49316-1.14648h.00488c.48438,0,1.01562,.40039,1.49609,1.12793,1.61914,2.45264,1.61426,6.76172-.01074,9.22119Zm-8.1084-8.80127l-.02637,.16846c-.16504,1.04395-.32129,2.03027-.51953,3.01025-.02051,.03516-.06445,.0874-.06348,.0918-5.38281,2.2627-10.89648,3.81885-16.38867,4.62549-2.76562,.40674-5.72949,.70752-8.64648,.15479-1.03516-.19678-2.05664-.5459-2.95508-1.01025-1.0625-.54932-1.73438-1.73779-1.75488-3.10205-.02051-1.36914,.61914-2.54834,1.71191-3.15479,1.63477-.90771,3.51758-1.45557,6.10645-1.77637,2.20117-.27441,4.3877-.38428,6.54492-.38428,3.56055,0,7.03906,.2998,10.35938,.65479,1.40137,.1499,2.79688,.33936,4.19336,.52881l1.43848,.19336Zm2.58105,26.74561c.0127-.28613,.02539-.59277,.03809-.89941,.01367-.34375,.02734-.6875,.04102-1.00098h7.96191c.01562,.29688,.03125,.62305,.04785,.95215,.01562,.32227,.03223,.64648,.04785,.94824h-8.13672Zm.03027,4.57129l8.04688-.00195c-.03613,.24023-.07324,.49121-.10742,.83398l-1.1377,2.41699-2.78125,4.78906-2.74512-4.72949-1.21582-3.01367c-.02637-.11719-.04492-.21094-.05957-.29492Z"/><rect x="12.74129" y="68.30926" width="120.80674" height="10.00014" transform="translate(-29.19869 57.49039) rotate(-36.2779)"/></svg>