<?xml version="1.0" encoding="UTF-8"?>
<svg id="a" xmlns="http://www.w3.org/2000/svg" viewBox="0 0 150 150"><defs><style>.b{fill:#fff;}.c{fill:#a81411;}.d{fill:#e92c18;}</style></defs><circle class="d" cx="74.57922" cy="75.17056" r="62.05795"/><g><path class="c" d="M104.94348,42.83849v-.00049c-2.04688-3.34033-4.50977-5.52686-7.53125-6.68652-.61426-.23193-1.23633-.39062-1.83789-.54395-.25195-.06445-.50488-.12891-.75586-.19873l-2.66211-.03564-.22461,.02637c-6.0166,1.42871-9.56934,5.94141-12.42676,10.05811-1.57422,2.26465-2.9668,4.68408-4.31348,7.02344-.44922,.78027-.89844,1.56055-1.35156,2.33154-.02441,.04102-.04297,.06787-.04883,.08105-.02734,.00293-.07227,.00586-.14648,.00391-1.88086-.04102-3.78711-.0415-5.66602,.00049-.0625,.00098-.10449,.00098-.13379-.00146l-.02539-.0415c-2.66309-5.10693-5.04199-8.84082-7.70996-12.10352-.40625-.50098-.82227-.99268-1.25977-1.47266-2.0752-2.26221-4.99316-4.97559-9.17188-5.88379l-2.86816-.02197-.23438,.13379c-3.36621,.52002-6.17285,2.26709-8.34082,5.19287-5.74707,7.73047-7.28906,16.41211-4.58301,25.8042,1.40625,4.87158,4.43848,8.43555,9.01562,10.59619,.17871,.08301,.37793,.15625,.57812,.22852,.14648,.05273,.37305,.13477,.49316,.19922,.00195,.13379-.03125,.36816-.05469,.5332-.03418,.23633-.06543,.47266-.07227,.69336-.11426,3.61523,.21289,8.90625,4.36035,13.09863,.14746,.15039,.28711,.31445,.42578,.49219-3.35449-.11914-6.48242-.03516-9.65918,.83691l-.92969,.25488,.24805,.93164c.19824,.74121,.38281,1.43164,.53906,2.00293l.21582,.79297,.81836-.08301c.61523-.06152,1.22168-.13281,1.82129-.20312,1.30859-.15234,2.54395-.29688,3.78418-.34277,1.4082-.04883,2.86621,.02539,4.27637,.09766l1.28613,.0625h.00391c.23535,.5459,.45215,1.10742,.67383,1.69141-3.89844,.39062-7.20117,1.04297-10.30566,2.03125l-.92773,.2959,1.25391,3.9209,1.22754-.3252c.125-.03027,.2373-.05762,.35547-.0918,2.85547-.83691,6.02637-1.40527,9.69434-1.7373,.29883-.02637,.38281,.01172,.38379,.01172,0,0,.06738,.05176,.17578,.31641,1.17871,2.88965,3.1084,4.7998,5.73633,5.67676,.15234,.05078,.30664,.10645,.46094,.16113,.66602,.23926,1.41992,.50879,2.21875,.51758,1.41504,.01758,2.14648,.56543,2.69824,2.01855,.64453,1.69629,2.13379,2.76855,4.08301,2.94043,1.08984,.10059,2.18652,.10938,3.24707,.11719l.12988,.00098c.02734,.00098,.05273,.00098,.0791,.00098,2.68164,0,4.55664-1.20117,5.42285-3.47559,.39355-1.02832,.89551-1.38672,2.1543-1.53027,4.34473-.5127,7.30762-2.70801,8.81445-6.54785l.04297-.125,.00879-.02832c.01367-.01074,.02734-.02148,.04004-.03223,2.61035,.33789,4.97949,.65234,7.38379,1.04297,.75293,.125,1.5,.32324,2.29199,.53418,.37305,.09863,.74902,.19922,1.12891,.29199l.8916,.21777,.26855-.87695c.21973-.71875,.42578-1.37891,.64551-2.08301l.28809-.92188-.91895-.29297c-3.09668-.98926-6.39648-1.64062-10.29883-2.0293,.21973-.57715,.43652-1.13672,.6709-1.69531,.95117-.0791,1.91895-.13477,2.88184-.16504,2.40039-.08008,5.24805-.05859,8.10938,.69043l.93848,.24609,1.05371-4.03418-.92773-.25195c-3.14551-.85352-6.25781-.94336-9.60156-.83203,.32324-.40918,.64258-.7998,.97266-1.16797,1.4668-1.6377,2.50195-3.55078,3.07812-5.6875,.66504-2.45996,.8623-5.05566,.60352-7.93945l-.00293-.03906,.00684-.00195c.83594-.30566,1.68457-.71289,2.52051-1.20996,3.08984-1.82324,5.34473-4.45605,6.88965-8.03955,.86816-1.95264,1.69043-7.05811,1.71582-7.22559l.02539-.11279c.03418-.13916,.0752-.31201,.08105-.49854,.33691-6.54102-1.08398-12.45703-4.22266-17.5835Zm-26.28906,11.854c2.23145-4.00049,4.78711-8.19043,8.34668-11.72754,.66504-.66113,1.30469-1.21387,1.9375-1.67383-.16113,.54736-.30957,1.10352-.42383,1.66553-.63379,3.07471-.09766,6.10791,.51074,8.66895,.55371,2.34082,1.04785,4.45459,1.48047,6.62207,.14453,.72656,.12207,1.47705-.07324,2.30762-3.49707-1.87744-7.59668-3.81299-12.27539-4.94385,.16602-.31152,.3291-.6167,.49707-.91895Zm-27.39844,2.54688c.25293-1.17236,.53125-2.33984,.81055-3.50732,.32617-1.36279,.65137-2.72607,.93652-4.09814,.60059-2.90771,.51562-5.68066-.25-8.27393,2.05957,1.5083,3.66992,3.44092,4.98633,5.15918,1.98242,2.59619,3.86133,5.57715,5.72266,9.08496l-5.07031,1.50684c-.06055,.02295-1.47168,.56787-2.2666,.96484l-4.93457,2.46777c-.22461-1.00098-.20117-2.07471,.06543-3.3042Zm-6.96777,15.95312c-2.61719-1.23535-4.54688-3.20654-5.88086-5.99902-1.47266-3.08594-2.04199-6.58789-1.73926-10.70605,.28613-3.85498,1.29883-7.37891,3.00781-10.47363,1.21289-2.19727,2.60352-3.83008,4.24902-4.99121,1.03125-.7251,2.15527-1.18164,3.50684-1.40186,1.6416,2.75439,2.12793,5.85303,1.44629,9.20947-.2666,1.31348-.58594,2.64746-.89453,3.93799-.30176,1.26465-.60449,2.52979-.86816,3.80371-.5166,2.49707-.31445,4.84668,.60645,6.90576-1.56641,2.97266-2.69336,6.16064-3.43359,9.71484Zm27.87012,36.83154c-.83008,.0332-1.68555,.0332-2.62109,0-.41602-.01367-.73047-.06445-.98145-.23438h4.50684c-.23926,.16211-.53418,.2168-.9043,.23438Zm2.28223-6.99316c-.65625,1.20508-1.62012,2.00488-2.86816,2.37988-.71289,.2168-1.73633,.00586-2.66797-.55078-.99121-.59277-1.70703-1.45508-1.8916-2.28613,.01074-.01172,.06445-.0498,.17676-.08301,.8877-.26367,1.82227-.48535,2.72656-.69922,.2998-.07129,.60059-.14258,.90039-.21582,.33008,.07422,.65723,.14258,.97949,.21094,.87207,.18262,1.69531,.35547,2.46484,.62305,.23438,.08105,.33887,.15039,.36523,.15234-.00781,.05371-.03906,.19727-.18555,.46875Zm19.27734-21.11426c-.22168,2.7373-1.16113,4.96289-2.87402,6.80273-1.01465,1.08984-1.7998,2.35352-2.55957,3.57617l-.10352,.16602c-.16895,.26758-.23438,.29492-.49023,.31738-1.2334,.10547-2.46289,.24023-3.69434,.37598l-1.01758,.1123c-.17773,.01562-.35352,.05664-.55078,.10742l-1.05566,.24121,.47168,3.9873,4.28027-.44922-.39062,1.03418h-4.41895v4.18359h2.50488c-.59766,.97852-1.37402,1.6416-2.37891,2.04688-1.13281,.45703-2.3125,.70312-3.47852,.85059,.13965-.22852,.27246-.46777,.3877-.72656,1.05859-2.39746,.30859-4.56348-2.00684-5.79492-2.125-1.12891-4.59277-1.47363-7.54492-1.0498-1.26758,.18262-2.52539,.58008-3.63574,1.14746-2.19336,1.11914-2.9375,3.25488-1.94238,5.57422,.15039,.34863,.32715,.67383,.51465,.98633-2.44141-.14062-4.67383-1.29004-5.84766-3.00195h2.4082v-4.19824h-4.37598l-.39355-1.04199c1.09961,.11328,2.17969,.22363,3.30664,.33691l.94434,.09375,.50684-4.09082-1.71582-.22363c-.49023-.06543-.97559-.13086-1.45996-.18555-1.12988-.12988-2.25879-.25879-3.44043-.36426-.00391-.00293-.0459-.03418-.14062-.1748l-.45996-.7168c-.68164-1.06934-1.38672-2.17383-2.28125-3.14062-1.71875-1.85352-2.65723-4.10352-2.87012-6.87891-.42578-5.479,.74121-10.82373,3.56836-16.33936,.09473-.18408,.31348-.40039,.52051-.51367,1.4082-.77148,2.83105-1.51562,4.28125-2.27441l1.5293-.80469c.39941-.16895,1.54688-.6416,2.0459-.7998l1.0498-.33789c.8125-.26367,1.61621-.52393,2.42188-.75635,6.37891-1.82812,12.70996-1.32471,19.35938,1.54248,1.83594,.79102,3.66309,1.7334,5.42969,2.64453,.5459,.28174,1.0918,.56299,1.64453,.84375,.10156,.05029,.25488,.19629,.33496,.34961,2.88477,5.56982,4.06836,10.98096,3.61719,16.54346Zm11.27637-22.07666v.00439c-.00684,.20654-.00586,.41553-.00488,.63818v.15967c-.2041,1.29541-.83008,4.66602-1.48047,5.93506-1.40625,3.14307-3.43164,5.31543-6.17285,6.60938-.77441-3.61377-1.89258-6.78369-3.4082-9.66406,.00293-.00049,.00488-.00439,.00586-.01172,.89258-2.13184,1.08691-4.45752,.57812-6.90967-.28711-1.40088-.62598-2.80566-.9541-4.16406-.23047-.95312-.45996-1.90625-.6748-2.86523-.85449-3.78906-.42969-7.03662,1.29688-9.92578,.27832,.08984,.56055,.17334,.84375,.25635,.69922,.20557,1.36035,.3999,1.93652,.7002,1.75977,.91699,3.21875,2.41895,4.58887,4.7251,2.52637,4.26318,3.65332,9.01025,3.44531,14.51221Z"/><path class="c" d="M54.4317,81.63982l1.67529,6.66644,4.06323-1.0152-1.67157-6.66956-4.06696,1.01831Zm3.08661,4.31201l-.72919-2.89996,.29749-.0744,.72687,2.90039-.29517,.07397Z"/><path class="c" d="M81.48194,87.35516l4.0639,1.0274,1.66284-6.67792-4.06317-1.02051-1.66357,6.67102Zm3.07715-4.31281l.29596,.07397-.72314,2.90533-.29706-.07513,.72424-2.90417Z"/></g><path d="M74.13392,149.43842c-1.1826-.8219-1.52914-1.94676-1.48065-3.37018,.09209-2.70284,.02667-5.41103,.02667-8.2474-16.33203-.92531-30.45319-6.85624-42.00984-18.38447-11.57217-11.5437-17.5335-25.65604-18.48603-42.11556-2.76034,0-5.50775-.06414-8.25005,.0264-1.42259,.04698-2.54951-.29691-3.37169-1.48039v-1.74478c.8189-1.19032,1.94895-1.5278,3.37094-1.4802,2.70299,.09049,5.41116,.02622,8.24284,.02622,.93419-16.34076,6.85714-30.46885,18.39961-42.02621,11.55326-11.56816,25.6697-17.52567,42.10422-18.4679,0-2.59037-.00035-5.14656,.00029-7.70274,.00013-.53302-.02587-1.06817,.01193-1.59865,.09845-1.38171,1.04778-2.31365,2.31743-2.31098,1.26799,.00266,2.27007,.93512,2.3016,2.3204,.05621,2.47013,.01949,4.94238,.02143,7.41375,.00046,.57509,.00007,1.15019,.00007,1.86663,16.31964,.93491,30.45206,6.84615,42.00839,18.38532,11.56925,11.5521,17.54331,25.66222,18.48019,42.12037,2.52906,0,5.03417-.00016,7.53929,.00012,.53304,.00006,1.06695-.01772,1.59895,.00632,1.48913,.06727,2.46795,.98554,2.47808,2.3026,.01012,1.31698-.96745,2.30503-2.4463,2.32878-2.6161,.04201-5.23331,.01381-7.85007,.01494-.38353,.00017-.76707,.00003-1.32625,.00003-.88668,16.31286-6.85517,30.42801-18.37595,41.97688-11.53831,11.56642-25.63487,17.59064-42.10634,18.49484,0,2.78116-.06464,5.53008,.02661,8.27382,.04734,1.42341-.29976,2.54857-1.48059,3.37203h-1.74478ZM17.02704,72.66892c2.94404,0,5.88807-.01842,8.83172,.00736,1.59942,.01401,2.60702,.94627,2.60735,2.31654,.00034,1.36317-1.01559,2.30064-2.60702,2.31991-2.32552,.02819-4.65162,.00779-6.97748,.00807-.64864,.00007-1.29728,0-1.95207,0,1.439,33.37362,29.50256,55.51229,55.70224,55.5974,.01575-.27978,.0452-.56464,.04573-.84955,.00506-2.71349-.02661-5.42751,.01956-8.14024,.02488-1.46225,1.0529-2.43403,2.37303-2.39536,1.26084,.03694,2.168,.98258,2.25267,2.38062,.03218,.53114,.00958,1.06569,.00969,1.59869,.00051,2.50352,.00022,5.00702,.00022,7.51194,30.98915-.95913,55.08883-26.9376,55.65457-55.64166-.46981-.02052-.94278-.05775-1.41585-.05905-2.51965-.00693-5.03979,.02346-7.55884-.01662-1.48889-.02369-2.46267-.9873-2.46687-2.30703-.00422-1.32239,.96696-2.29097,2.45291-2.31807,2.27666-.04154,4.55459-.01284,6.83199-.01376,.74669-.0003,1.49338-.00005,2.24345-.00005-1.43415-33.45155-29.75973-55.59411-55.69651-55.58681-.01475,.28206-.04212,.5671-.04264,.85218-.00504,2.71348,.02621,5.42751-.02044,8.14022-.02402,1.39734-.98467,2.34501-2.24394,2.38204-1.31207,.03857-2.30175-.94326-2.38078-2.39766-.03414-.62813-.00948-1.25952-.00961-1.88943-.00049-2.40596-.0002-4.81192-.0002-7.21943-31.25333,1.06696-55.1555,27.18942-55.6529,55.71974Z"/><path d="M63.20459,85.94648l-2.1791,.54449-1.20222-4.7834,2.18199-.54642,1.19933,4.78533Z"/><path d="M88.06494,81.22485l2.17957,.54744-1.19311,4.79138-2.18013-.55076,1.19367-4.78806Z"/><path class="c" d="M100.14623,75.82565l-1.55812,8.07389s-2.97459,6.65742-2.97459,7.36565-6.37412,12.18166-6.37412,12.18166l-3.96612,2.54965-5.94918,1.55812s-.56659,2.97459-1.27482,3.39953-4.816,.28329-4.816,.28329l-4.39106-3.82447-3.68283-.28329-5.80753-6.65742-7.36565-13.03154-2.6913-12.46495-8.64048-6.51577s-8.07389-23.93837,10.1986-31.16238c0,0,10.90683-.56659,19.26401,18.55578l8.92377,.56659s9.34871-19.54731,20.96378-19.54731c0,0,25.07155,20.96378,.14165,38.95297Z"/><g><path class="b" d="M109.15625,42.2002v-.00049c-2.04688-3.34033-4.50977-5.52686-7.53125-6.68652-.61426-.23193-1.23633-.39062-1.83789-.54395-.25195-.06445-.50488-.12891-.75586-.19873l-2.66211-.03564-.22461,.02637c-6.0166,1.42871-9.56934,5.94141-12.42676,10.05811-1.57422,2.26465-2.9668,4.68408-4.31348,7.02344-.44922,.78027-.89844,1.56055-1.35156,2.33154-.02441,.04102-.04297,.06787-.04883,.08105-.02734,.00293-.07227,.00586-.14648,.00391-1.88086-.04102-3.78711-.0415-5.66602,.00049-.0625,.00098-.10449,.00098-.13379-.00146l-.02539-.0415c-2.66309-5.10693-5.04199-8.84082-7.70996-12.10352-.40625-.50098-.82227-.99268-1.25978-1.47266-2.07518-2.26221-4.99315-4.97559-9.17186-5.88379l-2.86816-.02197-.23438,.13379c-3.36621,.52002-6.17285,2.26709-8.34082,5.19287-5.74707,7.73047-7.28906,16.41211-4.58301,25.8042,1.40625,4.87158,4.43848,8.43555,9.01562,10.59619,.17871,.08301,.37793,.15625,.57812,.22852,.14648,.05273,.37305,.13477,.49316,.19922,.00195,.13379-.03125,.36816-.05469,.5332-.03418,.23633-.06543,.47266-.07227,.69336-.11426,3.61523,.21289,8.90625,4.36035,13.09863,.14746,.15039,.28711,.31445,.42578,.49219-3.35449-.11914-6.48242-.03516-9.65918,.83691l-.92969,.25488,.24805,.93164c.19824,.74121,.38281,1.43164,.53906,2.00293l.21582,.79297,.81836-.08301c.61523-.06152,1.22168-.13281,1.82129-.20312,1.30859-.15234,2.54395-.29688,3.78418-.34277,1.4082-.04883,2.86621,.02539,4.27637,.09766l1.28613,.0625h.00391c.23535,.5459,.45215,1.10742,.67383,1.69141-3.89844,.39062-7.20117,1.04297-10.30566,2.03125l-.92773,.2959,1.25391,3.9209,1.22754-.3252c.125-.03027,.2373-.05762,.35547-.0918,2.85547-.83691,6.02637-1.40527,9.69434-1.7373,.29883-.02637,.38281,.01172,.38379,.01172,0,0,.06736,.05176,.17578,.31641,1.17871,2.88965,3.1084,4.7998,5.73633,5.67676,.15234,.05078,.30664,.10645,.46094,.16113,.66602,.23926,1.41992,.50879,2.21875,.51758,1.41504,.01758,2.14648,.56543,2.69824,2.01855,.64453,1.69629,2.13379,2.76855,4.08301,2.94043,1.08984,.10059,2.18652,.10938,3.24707,.11719l.12988,.00098c.02734,.00098,.05273,.00098,.0791,.00098,2.68164,0,4.55664-1.20117,5.42285-3.47559,.39355-1.02832,.89551-1.38672,2.1543-1.53027,4.34473-.5127,7.30762-2.70801,8.81445-6.54785l.04297-.125,.00879-.02832c.01367-.01074,.02734-.02148,.04004-.03223,2.61035,.33789,4.97949,.65234,7.38379,1.04297,.75293,.125,1.5,.32324,2.29199,.53418,.37305,.09863,.74902,.19922,1.12891,.29199l.8916,.21777,.26855-.87695c.21973-.71875,.42578-1.37891,.64551-2.08301l.28809-.92188-.91895-.29297c-3.09668-.98926-6.39648-1.64062-10.29883-2.0293,.21973-.57715,.43652-1.13672,.6709-1.69531,.95117-.0791,1.91895-.13477,2.88184-.16504,2.40039-.08008,5.24805-.05859,8.10938,.69043l.93848,.24609,1.05371-4.03418-.92773-.25195c-3.14551-.85352-6.25781-.94336-9.60156-.83203,.32324-.40918,.64258-.7998,.97266-1.16797,1.4668-1.6377,2.50195-3.55078,3.07812-5.6875,.66504-2.45996,.8623-5.05566,.60352-7.93945l-.00293-.03906,.00684-.00195c.83594-.30566,1.68457-.71289,2.52051-1.20996,3.08984-1.82324,5.34473-4.45605,6.88965-8.03955,.86816-1.95264,1.69043-7.05811,1.71582-7.22559l.02539-.11279c.03418-.13916,.0752-.31201,.08105-.49854,.33691-6.54102-1.08398-12.45703-4.22266-17.5835Zm-26.28906,11.854c2.23145-4.00049,4.78711-8.19043,8.34668-11.72754,.66504-.66113,1.30469-1.21387,1.9375-1.67383-.16113,.54736-.30957,1.10352-.42383,1.66553-.63379,3.07471-.09766,6.10791,.51074,8.66895,.55371,2.34082,1.04785,4.45459,1.48047,6.62207,.14453,.72656,.12207,1.47705-.07324,2.30762-3.49707-1.87744-7.59668-3.81299-12.27539-4.94385,.16602-.31152,.3291-.6167,.49707-.91895Zm-27.39844,2.54688c.25293-1.17236,.53125-2.33984,.81055-3.50732,.32617-1.36279,.65137-2.72607,.93652-4.09814,.60059-2.90771,.51562-5.68066-.25-8.27393,2.05957,1.5083,3.66992,3.44092,4.98633,5.15918,1.98242,2.59619,3.86133,5.57715,5.72266,9.08496l-5.07031,1.50684c-.06055,.02295-1.47168,.56787-2.2666,.96484l-4.93457,2.46777c-.22461-1.00098-.20117-2.07471,.06543-3.3042Zm-6.96777,15.95312c-2.61719-1.23535-4.54688-3.20654-5.88086-5.99902-1.47266-3.08594-2.04199-6.58789-1.73926-10.70605,.28613-3.85498,1.29883-7.37891,3.00781-10.47363,1.21289-2.19727,2.60352-3.83008,4.24902-4.99121,1.03125-.7251,2.15527-1.18164,3.50684-1.40186,1.6416,2.75439,2.12793,5.85303,1.44629,9.20947-.2666,1.31348-.58594,2.64746-.89453,3.93799-.30176,1.26465-.60449,2.52979-.86816,3.80371-.5166,2.49707-.31445,4.84668,.60645,6.90576-1.56641,2.97266-2.69336,6.16064-3.43359,9.71484Zm27.87012,36.83154c-.83008,.0332-1.68555,.0332-2.62109,0-.41602-.01367-.73047-.06445-.98145-.23438h4.50684c-.23926,.16211-.53418,.2168-.9043,.23438Zm2.28223-6.99316c-.65625,1.20508-1.62012,2.00488-2.86816,2.37988-.71289,.2168-1.73633,.00586-2.66797-.55078-.99121-.59277-1.70703-1.45508-1.8916-2.28613,.01074-.01172,.06445-.0498,.17676-.08301,.8877-.26367,1.82227-.48535,2.72656-.69922,.2998-.07129,.60059-.14258,.90039-.21582,.33008,.07422,.65723,.14258,.97949,.21094,.87207,.18262,1.69531,.35547,2.46484,.62305,.23438,.08105,.33885,.15039,.36523,.15234-.00781,.05371-.03906,.19727-.18555,.46875Zm19.27734-21.11426c-.22168,2.7373-1.16113,4.96289-2.87402,6.80273-1.01465,1.08984-1.7998,2.35352-2.55957,3.57617l-.10352,.16602c-.16895,.26758-.23438,.29492-.49023,.31738-1.2334,.10547-2.46289,.24023-3.69434,.37598l-1.01758,.1123c-.17773,.01562-.35352,.05664-.55078,.10742l-1.05566,.24121,.47168,3.9873,4.28027-.44922-.39062,1.03418h-4.41895v4.18359h2.50488c-.59766,.97852-1.37402,1.6416-2.37891,2.04688-1.13281,.45703-2.3125,.70312-3.47852,.85059,.13965-.22852,.27246-.46777,.38768-.72656,1.05861-2.39746,.30861-4.56348-2.00682-5.79492-2.125-1.12891-4.59277-1.47363-7.54492-1.0498-1.26758,.18262-2.52539,.58008-3.63574,1.14746-2.19336,1.11914-2.93752,3.25488-1.94238,5.57422,.15039,.34863,.32715,.67383,.51465,.98633-2.44141-.14062-4.67383-1.29004-5.84766-3.00195h2.4082v-4.19824h-4.37598l-.39355-1.04199c1.09961,.11328,2.17969,.22363,3.30664,.33691l.94434,.09375,.50684-4.09082-1.71582-.22363c-.49023-.06543-.97559-.13086-1.45996-.18555-1.12988-.12988-2.25879-.25879-3.44043-.36426-.00391-.00293-.0459-.03418-.14062-.1748l-.45996-.7168c-.68164-1.06934-1.38672-2.17383-2.28125-3.14062-1.71875-1.85352-2.65723-4.10352-2.87012-6.87891-.42578-5.479,.74121-10.82373,3.56836-16.33936,.09473-.18408,.31348-.40039,.52051-.51367,1.4082-.77148,2.83105-1.51562,4.28125-2.27441l1.5293-.80469c.39941-.16895,1.54688-.6416,2.0459-.7998l1.0498-.33789c.8125-.26367,1.61621-.52393,2.42188-.75635,6.37891-1.82812,12.70996-1.32471,19.35938,1.54248,1.83594,.79102,3.66309,1.7334,5.42969,2.64453,.5459,.28174,1.0918,.56299,1.64453,.84375,.10156,.05029,.25488,.19629,.33496,.34961,2.88477,5.56982,4.06836,10.98096,3.61719,16.54346Zm11.27637-22.07666v.00439c-.00684,.20654-.00586,.41553-.00488,.63818v.15967c-.2041,1.29541-.83008,4.66602-1.48047,5.93506-1.40625,3.14307-3.43164,5.31543-6.17285,6.60938-.77441-3.61377-1.89258-6.78369-3.4082-9.66406,.00293-.00049,.00488-.00439,.00586-.01172,.89258-2.13184,1.08691-4.45752,.57812-6.90967-.28713-1.40088-.62598-2.80566-.9541-4.16406-.23047-.95312-.45996-1.90625-.6748-2.86523-.85449-3.78906-.42969-7.03662,1.29688-9.92578,.27832,.08984,.56055,.17334,.84375,.25635,.69922,.20557,1.36035,.3999,1.93652,.7002,1.75977,.91699,3.21875,2.41895,4.58887,4.7251,2.52637,4.26318,3.65332,9.01025,3.44531,14.51221Z"/><path class="b" d="M58.64447,81.00153l1.67529,6.66644,4.06323-1.0152-1.67157-6.66956-4.06696,1.01831Zm3.08661,4.31201l-.72919-2.89996,.29749-.0744,.72687,2.90039-.29517,.07397Z"/><path class="b" d="M85.6947,86.71686l4.0639,1.0274,1.66284-6.67792-4.06317-1.02051-1.66357,6.67102Zm3.07715-4.31281l.29596,.07397-.72314,2.90533-.29706-.07513,.72424-2.90417Z"/></g><rect x="12.2804" y="67.25327" width="122.04306" height="10.0004" transform="translate(-28.7129 58.58924) rotate(-36.9583)"/></svg>