<?xml version="1.0" encoding="UTF-8"?>
<svg id="a" xmlns="http://www.w3.org/2000/svg" viewBox="0 0 150 150"><defs><style>.b{fill:#fff;}.c{fill:#a81411;}.d{fill:#e92c18;}</style></defs><circle class="d" cx="74.82018" cy="75.47086" r="62.05795"/><path class="c" d="M96.53154,99.81006c-.05542-.33917-.1806-.64081-.29138-.90753-.68213-1.63928-1.36542-3.2782-2.04865-4.91711-1.47845-3.54535-2.95654-7.091-4.4198-10.64319-.54858-1.33087-1.48602-2.15942-2.86621-2.53271-2.22357-.60211-4.53516-1.25995-7.06561-2.01074-.16388-.04858-.3418-.18744-.37671-.25269-.02466-.05194-.06567-.13843,.2337-.37024l.72766-.56189c1.47803-1.14081,3.00696-2.32031,4.42773-3.59119,.93329-.83545,1.68103-1.83398,2.1048-2.81201,1.68445-3.88336,3.33136-7.85736,4.92401-11.70013,.48712-1.17456,.97388-2.34912,1.4621-3.52252,.02466-.05884,.05353-.11951,.08313-.1817,.15326-.3244,.34369-.72809,.22455-1.17078-.1582-.58997-.4101-1.32062-.95789-1.73492-.7793-.58997-1.83624-.39307-2.51038,.47003-.23523,.30127-.37677,.64154-.50159,.94238l-2.09338,5.0166c-1.44128,3.45612-2.88293,6.91266-4.33368,10.36469-.12445,.29626-.3183,.7132-.55957,.91467-1.68713,1.40863-3.44592,2.79602-5.14673,4.13751l-.10052,.07928c-.00684,.00531-.0163,.01141-.02728,.01746-.05579-.03107-.1123-.06183-.16846-.09216-.659-.35736-.72308-.44348-.62372-.83881,.07245-.2887,.05273-.56873,.03717-.7937-.00983-.13995-.02008-.28455-.00153-.36493,.11841-.5061,.24475-.61688,.24432-.61688,1.84076-1.34528,3.00739-3.13904,3.56696-5.48431,.56604-2.37457,.57135-4.6983,.0152-6.90631-.08575-.3418-.05121-.48975,.16766-.71967,.51331-.5387,1.0061-1.10321,1.48303-1.6488,.46204-.5296,.94043-1.07703,1.42761-1.58923,1.12866-1.18591,1.67151-2.60516,1.66016-4.33893-.01062-1.59985-.00378-3.22894,.00305-4.8045,.01099-2.5343,.02197-5.15466-.03949-7.73523-.07092-2.98077,.27808-5.22559,1.13171-7.27802,.51862-1.24591,.24884-2.32867-.7804-3.13068l-.18439-.1438h-1.4682l-.20374,.27924c-.10358,.14191-.21741,.27924-.33118,.41693-.29254,.354-.59491,.72046-.7876,1.1814-1.04596,2.50092-1.49213,5.20892-1.40411,8.52203,.06982,2.6485,.05731,5.34894,.0448,7.96021-.0072,1.54749-.01483,3.09497-.00574,4.64209,.00421,.75574-.19232,1.2865-.65668,1.77435-.62372,.65521-1.23035,1.34644-1.81689,2.01532-.10242,.11646-.20483,.23328-.30768,.35016-.13544-.22308-.15515-.48828-.0899-.87146,.41583-2.44281-.24774-4.73431-1.97241-6.81104-.87329-1.05127-2.00537-1.23602-2.95575-.48218-.93097,.73981-.99622,1.94244-.16235,2.99219,.67798,.85437,1.0509,1.69543,1.15826,2.64313-1.79224-.47955-3.51233-.4765-5.21729,.0061,.06567-.75385,.33466-1.45911,.82178-2.17084,.07208-.1051,.14984-.20636,.22723-.30804,.0827-.10889,.16541-.21777,.24396-.33008,.69427-.99701,.57928-2.13135-.28644-2.8222-.89612-.71667-2.03314-.58575-2.82941,.32513-1.7558,2.0141-2.4751,4.28851-2.13782,6.75977,.0694,.50916,.07471,.82709-.06299,1.07556-.13318-.151-.26636-.30157-.40027-.45258-.73865-.83392-1.50232-1.69586-2.18524-2.58661-.16046-.20905-.16315-.84302-.16425-1.11353l-.01025-2.18182c-.02008-4.14551-.04095-8.43213,.01862-12.64398,.02954-2.08508-.61237-3.95813-1.23303-5.76929-.12061-.35205-.24127-.70374-.35699-1.05768-.13849-.42267-.47345-.69958-.7428-.92194-.08612-.07166-.1734-.14185-.24774-.21735l-.19958-.203h-1.40747l-.18439,.1438c-1.0293,.80237-1.29901,1.88513-.78076,3.13104,.85358,2.05133,1.20264,4.29608,1.13208,7.27844-.06189,2.58508-.05048,5.20966-.03949,7.74811,.00647,1.57098,.01367,3.19586,.00305,4.79156-.01141,1.73151,.53149,3.15076,1.66016,4.33862,.95416,1.00342,1.93256,2.112,2.90759,3.29376,.08649,.10474,.17145,.38013,.16083,.62408-.02576,.59717-.08344,1.21362-.13922,1.81-.09973,1.06799-.20331,2.172-.13922,3.27484,.1734,2.98724,1.23108,5.23242,3.14471,6.67334,.8399,.63202,1.09528,1.25836,.9765,2.39124-.01819,.17072-.01819,.33954-.00073,.49963,.00488,.04364,.00342,.06982,.00568,.0755-.04968,.04059-.19916,.10168-.29974,.14264-.14148,.05768-.30499,.12408-.46472,.22156-.0675-.02618-.13885-.06067-.17072-.08575l-.09674-.07507c-1.52588-1.18671-3.10413-2.41364-4.59241-3.68304-.42456-.3623-.78876-.85364-.99927-1.34833-1.59875-3.75629-3.19708-7.58875-4.74268-11.29492l-1.65411-3.96417c-.099-.24091-.21094-.51367-.37177-.77014-.56683-.90558-1.47882-1.20984-2.43945-.81494-.97345,.40027-1.41315,1.25464-1.17682,2.2854,.08307,.36194,.21356,.69617,.3183,.94733,.50079,1.203,.99969,2.4068,1.49896,3.6106,1.58087,3.81427,3.21564,7.75793,4.88715,11.61249,.42456,.97876,1.17303,1.97693,2.10748,2.81079,.97235,.86804,2.00653,1.68445,3.00659,2.47394,.71857,.5672,1.46136,1.15375,2.16284,1.74402,.04822,.05237,.11005,.22919,.12939,.41693-.06415,.04517-.15063,.09375-.21094,.11194l-.27124,.08081c-2.19055,.65332-4.45551,1.32861-6.69879,1.90826-1.51825,.39233-2.50806,1.26562-3.11505,2.74829-1.461,3.56769-2.97284,7.18542-4.435,10.68408-.63318,1.51526-1.26636,3.03052-1.89764,4.54694-.10358,.24963-.2337,.58044-.32251,.9306-.25793,1.02472,.15973,1.88971,1.11731,2.31305,.99548,.44049,1.93787,.1275,2.52399-.8335,.13696-.22455,.23145-.45905,.31494-.66614l.06183-.15143c.53302-1.27661,1.07477-2.55017,1.61652-3.82373,1.34717-3.16821,2.74066-6.44421,3.97894-9.72394,.62598-1.65826,1.44586-2.38745,3.02521-2.69019,1.32971-.25458,2.59534-.63849,3.9353-1.04443,.09674-.0296,.19391-.05884,.29102-.08844-.41846,.86841-.81836,1.69281-1.24402,2.50165-.27582,.52319-.57208,.93024-.88055,1.211-1.51221,1.3764-2.86542,2.54681-4.13672,3.57721-1.48718,1.2049-2.20117,2.77551-2.18378,4.80182,.01257,1.44885-.00415,2.92694-.02081,4.35645-.02997,2.59985-.06073,5.28815,.08423,7.93396,.21393,3.91028-.52966,7.02423-2.34082,9.80096-.0827,.12708-.13806,.24963-.18738,.35773l-.02087,.04633c-.58691,1.28149-.25421,2.43634,.84674,2.94244,1.09265,.50269,2.12,.07208,2.74713-1.15143,.28265-.552,.55731-1.10815,.83197-1.66431,.36041-.72998,.73297-1.48492,1.11725-2.21295,.67303-1.27509,.99707-2.63519,.99023-4.15802-.01746-3.85297-.01447-7.77124-.01178-11.56085l.00226-4.16376c0-1.14117,.2724-1.92303,.94427-2.53802-.64642,3.55627-.82324,6.61224-.55841,9.51447,.44653,4.88684,1.97882,8.75574,4.68536,11.82721,3.22284,3.65802,8.00836,4.48883,11.90839,2.06842,2.01941-1.25348,3.62952-3.1322,4.92206-5.74347,2.00616-4.05444,2.70233-8.70905,2.12799-14.23022-.11609-1.11615-.28265-2.20343-.46021-3.35107,.70148,.5672,.97424,1.31152,.95679,2.53772-.07092,5.0332-.07056,10.18335,.00153,15.74469,.0144,1.13092,.2644,2.34039,.72272,3.4975,.45599,1.15259,1.03876,2.25659,1.60254,3.32452,.19495,.36951,.38995,.73865,.57965,1.10968,.453,.88702,1.11615,1.35706,1.86316,1.35706,.28491,0,.58234-.0683,.88434-.20825,.49927-.23071,.85321-.60474,1.02356-1.08203,.19843-.55463,.13092-1.20264-.19421-1.87451-.22272-.45941-.45831-.91315-.69391-1.36694-.40857-.78564-.83044-1.59833-1.16241-2.41437-.39001-.95941-.59186-1.81567-.60022-2.54523-.05951-5.39062-.04401-10.76233-.02081-16.24969,.0083-1.96216-.68329-3.48273-2.11469-4.64856-.91809-.74811-1.83014-1.54443-2.71185-2.31458-.32703-.28534-.65363-.57062-.98145-.85437-.12671-.10968-.2644-.21472-.40253-.31946-.24927-.18933-.5072-.38507-.6051-.5683-.56866-1.06268-1.07935-2.14386-1.61993-3.28851l-.00952-.02045c.44202,.12671,.88397,.25378,1.32593,.38129,1.46289,.42145,2.97516,.85699,4.47443,1.25537,.43707,.11609,.62067,.27466,.7865,.67871,1.61768,3.94519,3.28656,7.94537,4.90045,11.81427l1.01941,2.4436c.05084,.12219,.10016,.24548,.14948,.36877,.17755,.44238,.36078,.8999,.6203,1.3335,.51367,.86084,1.41846,1.17041,2.36237,.80927,.95642-.36609,1.42725-1.19623,1.25995-2.21899Zm-32.47961-3.1026l.26257-2.20233,.49738-2.60596,1.05957-3.45654c.4837,.08539,.96289,.17908,1.43103,.27014,1.53992,.30048,2.99445,.58459,4.49988,.58691h.01935c1.47693,0,2.91364-.28149,4.43378-.57971,.47504-.09296,.96216-.18854,1.45569-.27582l1.07935,3.45728,.48071,2.5946,.27087,2.21143h-15.49017Zm7.15399-27.1087c-1.83087-.16766-3.09271-1.0968-3.75018-2.76227-.3183-.80463-.50037-1.66663-.69275-2.57904-.07965-.37708-.1593-.75421-.24884-1.1275,.23975-1.98834,.53223-3.6189,1.69659-4.93842,1.04822-1.18781,2.62073-1.7774,4.20581-1.57971,1.54596,.19421,2.83246,1.08655,3.53015,2.44928,1.43256,2.79675,1.37372,5.71802-.17035,8.44769-.9079,1.60516-2.40265,2.28918-4.57043,2.08997Zm-3.58057,14.9848c.09674-.17188,.19006-.34143,.27808-.51367,.25037-.49091,.39227-.54175,.79407-.46741,.50647,.09332,.99963-.00342,1.38928-.27393,.41388-.28717,.6969-.75909,.79706-1.32971,.19006-1.08429-.40857-1.97736-1.52588-2.27515-.11267-.02997-.22839-.05157-.34448-.07281-.13049-.02393-.25342-.04633-.33081-.08044-.41846-.18365-.57098-.43097-.52582-.85321,.03113-.29218,.14264-.64233,.49811-.65295,2.0965-.06146,4.20166-.06219,6.25488-.00415,.39685,.01178,.50531,.38428,.52618,.69464,.02844,.42035-.13654,.66394-.55121,.81451-.08612,.03113-.20453,.052-.32935,.0744-.15741,.02765-.33575,.05914-.52051,.12213-.93933,.32056-1.43213,1.07135-1.35248,2.0589,.04968,.61572,.31909,1.15216,.73901,1.47162,.34033,.25873,.76068,.35699,1.18292,.27582,.72693-.13885,.91321,.13507,1.3457,.94617l.03186,.05994c-2.78619,.99438-5.53326,.99548-8.35663,.00531Zm3.38556-10.70044v-.24091h1.55359v.24091h-1.55359Zm-2.98535,37.40662h7.53375c-1.18518,1.42114-2.46027,2.16742-3.73346,2.17383h-.0163c-1.28003,0-2.5722-.74622-3.784-2.17383Zm-2.56384-4.12122c-.01514-.00153-.03906-.00873-.06183-.01709-.1825-.39075-.35852-.61005-.50305-.78986-.14874-.18555-.26782-.33386-.41583-.72119l-.48975-2.65491-.1286-2.14771h15.8653l-.12671,2.14618-.50494,2.65527c-.1449,.38129-.26898,.53986-.42413,.73865-.14453,.18518-.31982,.40936-.4989,.78876-.01367,.00262-.02618,.00415-.03564,.00452-4.5575,.01483-8.70758,.01404-12.6759-.00262Z"/><path d="M74.13392,149.43842c-1.1826-.8219-1.52914-1.94676-1.48065-3.37018,.09209-2.70284,.02667-5.41103,.02667-8.2474-16.33203-.92531-30.45319-6.85624-42.00984-18.38447-11.57217-11.5437-17.5335-25.65604-18.48603-42.11556-2.76034,0-5.50775-.06414-8.25005,.0264-1.42259,.04698-2.54951-.29691-3.37169-1.48039v-1.74478c.8189-1.19032,1.94895-1.5278,3.37094-1.4802,2.70299,.09049,5.41116,.02622,8.24284,.02622,.93419-16.34076,6.85714-30.46885,18.39961-42.02621,11.55326-11.56816,25.6697-17.52567,42.10422-18.4679,0-2.59037-.00035-5.14656,.00029-7.70274,.00013-.53302-.02587-1.06817,.01193-1.59865,.09845-1.38171,1.04778-2.31365,2.31743-2.31098,1.26799,.00266,2.27007,.93512,2.3016,2.3204,.05621,2.47013,.01949,4.94238,.02143,7.41375,.00046,.57509,.00007,1.15019,.00007,1.86663,16.31964,.93491,30.45206,6.84615,42.00839,18.38532,11.56925,11.5521,17.54331,25.66222,18.48019,42.12037,2.52906,0,5.03417-.00016,7.53929,.00012,.53304,.00006,1.06695-.01772,1.59895,.00632,1.48913,.06727,2.46795,.98554,2.47808,2.3026,.01012,1.31698-.96745,2.30503-2.4463,2.32878-2.6161,.04201-5.23331,.01381-7.85007,.01494-.38353,.00017-.76707,.00003-1.32625,.00003-.88668,16.31286-6.85517,30.42801-18.37595,41.97688-11.53831,11.56642-25.63487,17.59064-42.10634,18.49484,0,2.78116-.06464,5.53008,.02661,8.27382,.04734,1.42341-.29976,2.54857-1.48059,3.37203h-1.74478ZM17.02704,72.66892c2.94404,0,5.88807-.01842,8.83172,.00736,1.59942,.01401,2.60702,.94627,2.60735,2.31654,.00034,1.36317-1.01559,2.30064-2.60702,2.31991-2.32552,.02819-4.65162,.00779-6.97748,.00807-.64864,.00007-1.29728,0-1.95207,0,1.439,33.37362,29.50256,55.51229,55.70224,55.5974,.01575-.27978,.0452-.56464,.04573-.84955,.00506-2.71349-.02661-5.42751,.01956-8.14024,.02488-1.46225,1.0529-2.43403,2.37303-2.39536,1.26084,.03694,2.168,.98258,2.25267,2.38062,.03218,.53114,.00958,1.06569,.00969,1.59869,.00051,2.50352,.00022,5.00702,.00022,7.51194,30.98915-.95913,55.08883-26.9376,55.65457-55.64166-.46981-.02052-.94278-.05775-1.41585-.05905-2.51965-.00693-5.03979,.02346-7.55884-.01662-1.48889-.02369-2.46267-.9873-2.46687-2.30703-.00422-1.32239,.96696-2.29097,2.45291-2.31807,2.27666-.04154,4.55459-.01284,6.83199-.01376,.74669-.0003,1.49338-.00005,2.24345-.00005-1.43415-33.45155-29.75973-55.59411-55.69651-55.58681-.01475,.28206-.04212,.5671-.04264,.85218-.00504,2.71348,.02621,5.42751-.02044,8.14022-.02402,1.39734-.98467,2.34501-2.24394,2.38204-1.31207,.03857-2.30175-.94326-2.38078-2.39766-.03414-.62813-.00948-1.25952-.00961-1.88943-.00049-2.40596-.0002-4.81192-.0002-7.21943-31.25333,1.06696-55.1555,27.18942-55.6529,55.71974Z"/><path class="c" d="M78.48962,54.34344c.36433,.12144,2.67175,2.42886,2.79319,5.22206s-2.18598,8.37958-2.18598,9.10824-.8501,1.57876-.8501,2.79319,0,3.03608,.48577,3.64329,1.33587,1.33587,1.33587,2.55031-1.57876,3.40041-.24289,5.10061,3.52185,5.3435,3.52185,5.3435c0,0,1.09299,7.40803,1.09299,9.95834s-1.21443,7.28659-1.21443,7.28659l-4.37195,8.62246-4.12907,.97155-7.40803-5.46494s-2.30742-8.13669-2.30742-10.687-.24289-6.80082,.36433-8.25813,2.30742-7.40803,2.30742-7.40803l1.57876-5.82927,1.57876-3.64329s.48577-2.42886-.24289-3.88618-2.67175-4.61484-2.67175-6.67937,.12144-6.55793,.48577-6.92226,6.07216-2.67175,6.07216-2.67175l4.00762,.8501Z"/><path class="b" d="M99.36089,98.59558c-.05542-.33917-.1806-.64081-.29138-.90753-.68213-1.63928-1.36542-3.2782-2.04865-4.91711-1.47845-3.54535-2.95654-7.091-4.4198-10.64319-.54858-1.33087-1.48602-2.15942-2.86621-2.53271-2.22357-.60211-4.53516-1.25995-7.06561-2.01074-.16388-.04858-.3418-.18744-.37671-.25269-.02466-.05194-.06567-.13843,.2337-.37024l.72766-.56189c1.47803-1.14081,3.00696-2.32031,4.42773-3.59119,.93329-.83545,1.68103-1.83398,2.1048-2.81201,1.68445-3.88336,3.33136-7.85736,4.92401-11.70013,.48712-1.17456,.97388-2.34912,1.4621-3.52252,.02466-.05884,.05353-.11951,.08313-.1817,.15326-.3244,.34369-.72809,.22455-1.17078-.1582-.58997-.4101-1.32062-.95789-1.73492-.7793-.58997-1.83624-.39307-2.51038,.47003-.23523,.30127-.37677,.64154-.50159,.94238l-2.09338,5.0166c-1.44128,3.45612-2.88293,6.91266-4.33368,10.36469-.12445,.29626-.3183,.7132-.55957,.91467-1.68713,1.40863-3.44592,2.79602-5.14673,4.13751l-.10052,.07928c-.00684,.00531-.0163,.01141-.02728,.01746-.05579-.03107-.1123-.06183-.16846-.09216-.659-.35736-.72308-.44348-.62372-.83881,.07245-.2887,.05273-.56873,.03717-.7937-.00983-.13995-.02008-.28455-.00153-.36493,.11841-.5061,.24475-.61688,.24432-.61688,1.84076-1.34528,3.00739-3.13904,3.56696-5.48431,.56604-2.37457,.57135-4.6983,.0152-6.90631-.08575-.3418-.05121-.48975,.16766-.71967,.51331-.5387,1.0061-1.10321,1.48303-1.6488,.46204-.5296,.94043-1.07703,1.42761-1.58923,1.12866-1.18591,1.67151-2.60516,1.66016-4.33893-.01062-1.59985-.00378-3.22894,.00305-4.8045,.01099-2.5343,.02197-5.15466-.03949-7.73523-.07092-2.98077,.27808-5.22559,1.13171-7.27802,.51862-1.24591,.24884-2.32867-.7804-3.13068l-.18439-.1438h-1.4682l-.20374,.27924c-.10358,.14191-.21741,.27924-.33118,.41693-.29254,.354-.59491,.72046-.7876,1.1814-1.04596,2.50092-1.49213,5.20892-1.40411,8.52203,.06982,2.6485,.05731,5.34894,.0448,7.96021-.0072,1.54749-.01483,3.09497-.00574,4.64209,.00421,.75574-.19232,1.2865-.65668,1.77435-.62372,.65521-1.23035,1.34644-1.81689,2.01532-.10242,.11646-.20483,.23328-.30768,.35016-.13544-.22308-.15515-.48828-.0899-.87146,.41583-2.44281-.24774-4.73431-1.97241-6.81104-.87329-1.05127-2.00537-1.23602-2.95575-.48218-.93097,.73981-.99622,1.94244-.16235,2.99219,.67798,.85437,1.0509,1.69543,1.15826,2.64313-1.79224-.47955-3.51233-.4765-5.21729,.0061,.06567-.75385,.33466-1.45911,.82178-2.17084,.07208-.1051,.14984-.20636,.22723-.30804,.0827-.10889,.16541-.21777,.24396-.33008,.69427-.99701,.57928-2.13135-.28644-2.8222-.89612-.71667-2.03314-.58575-2.82941,.32513-1.7558,2.0141-2.4751,4.28851-2.13782,6.75977,.0694,.50916,.07471,.82709-.06299,1.07556-.13318-.151-.26636-.30157-.40027-.45258-.73865-.83392-1.50232-1.69586-2.18524-2.58661-.16046-.20905-.16315-.84302-.16425-1.11353l-.01025-2.18182c-.02008-4.14551-.04095-8.43213,.01862-12.64398,.02954-2.08508-.61237-3.95813-1.23303-5.76929-.12061-.35205-.24127-.70374-.35699-1.05768-.13849-.42267-.47345-.69958-.7428-.92194-.08612-.07166-.1734-.14185-.24774-.21735l-.19958-.203h-1.40747l-.18439,.1438c-1.0293,.80237-1.29901,1.88513-.78076,3.13104,.85358,2.05133,1.20264,4.29608,1.13208,7.27844-.06189,2.58508-.05048,5.20966-.03949,7.74811,.00647,1.57098,.01367,3.19586,.00305,4.79156-.01141,1.73151,.53149,3.15076,1.66016,4.33862,.95416,1.00342,1.93256,2.112,2.90759,3.29376,.08649,.10474,.17145,.38013,.16083,.62408-.02576,.59717-.08344,1.21362-.13922,1.81-.09973,1.06799-.20331,2.172-.13922,3.27484,.1734,2.98724,1.23108,5.23242,3.14471,6.67334,.8399,.63202,1.09528,1.25836,.9765,2.39124-.01819,.17072-.01819,.33954-.00073,.49963,.00488,.04364,.00342,.06982,.00568,.0755-.04968,.04059-.19916,.10168-.29974,.14264-.14148,.05768-.30499,.12408-.46472,.22156-.0675-.02618-.13885-.06067-.17072-.08575l-.09674-.07507c-1.52588-1.18671-3.10413-2.41364-4.59241-3.68304-.42456-.3623-.78876-.85364-.99927-1.34833-1.59875-3.75629-3.19708-7.58875-4.74268-11.29492l-1.65411-3.96417c-.099-.24091-.21094-.51367-.37177-.77014-.56683-.90558-1.47882-1.20984-2.43945-.81494-.97345,.40027-1.41315,1.25464-1.17682,2.2854,.08307,.36194,.21356,.69617,.3183,.94733,.50079,1.203,.99969,2.4068,1.49896,3.6106,1.58087,3.81427,3.21564,7.75793,4.88715,11.61249,.42456,.97876,1.17303,1.97693,2.10748,2.81079,.97235,.86804,2.00653,1.68445,3.00659,2.47394,.71857,.5672,1.46136,1.15375,2.16284,1.74402,.04822,.05237,.11005,.22919,.12939,.41693-.06415,.04517-.15063,.09375-.21094,.11194l-.27124,.08081c-2.19055,.65332-4.45551,1.32861-6.69879,1.90826-1.51825,.39233-2.50806,1.26562-3.11505,2.74829-1.461,3.56769-2.97284,7.18542-4.435,10.68408-.63318,1.51526-1.26636,3.03052-1.89764,4.54694-.10358,.24963-.2337,.58044-.32251,.9306-.25793,1.02472,.15973,1.88971,1.11731,2.31305,.99548,.44049,1.93787,.1275,2.52399-.8335,.13696-.22455,.23145-.45905,.31494-.66614l.06183-.15143c.53302-1.27661,1.07477-2.55017,1.61652-3.82373,1.34717-3.16821,2.74066-6.44421,3.97894-9.72394,.62598-1.65826,1.44586-2.38745,3.02521-2.69019,1.32971-.25458,2.59534-.63849,3.9353-1.04443,.09674-.0296,.19391-.05884,.29102-.08844-.41846,.86841-.81836,1.69281-1.24402,2.50165-.27582,.52319-.57208,.93024-.88055,1.211-1.51221,1.3764-2.86542,2.54681-4.13672,3.57721-1.48718,1.2049-2.20117,2.77551-2.18378,4.80182,.01257,1.44885-.00415,2.92694-.02081,4.35645-.02997,2.59985-.06073,5.28815,.08423,7.93396,.21393,3.91028-.52966,7.02423-2.34082,9.80096-.0827,.12708-.13806,.24963-.18738,.35773l-.02087,.04633c-.58691,1.28149-.25421,2.43634,.84674,2.94244,1.09265,.50269,2.12,.07208,2.74713-1.15143,.28265-.552,.55731-1.10815,.83197-1.66431,.36041-.72998,.73297-1.48492,1.11725-2.21295,.67303-1.27509,.99707-2.63519,.99023-4.15802-.01746-3.85297-.01447-7.77124-.01178-11.56085l.00226-4.16376c0-1.14117,.2724-1.92303,.94427-2.53802-.64642,3.55627-.82324,6.61224-.55841,9.51447,.44653,4.88684,1.97882,8.75574,4.68536,11.82721,3.22284,3.65802,8.00836,4.48883,11.90839,2.06842,2.01941-1.25348,3.62952-3.1322,4.92206-5.74347,2.00616-4.05444,2.70233-8.70905,2.12799-14.23022-.11609-1.11615-.28265-2.20343-.46021-3.35107,.70148,.5672,.97424,1.31152,.95679,2.53772-.07092,5.0332-.07056,10.18335,.00153,15.74469,.0144,1.13092,.2644,2.34039,.72272,3.4975,.45599,1.15259,1.03876,2.25659,1.60254,3.32452,.19495,.36951,.38995,.73865,.57965,1.10968,.453,.88702,1.11615,1.35706,1.86316,1.35706,.28491,0,.58234-.0683,.88434-.20825,.49927-.23071,.85321-.60474,1.02356-1.08203,.19843-.55463,.13092-1.20264-.19421-1.87451-.22272-.45941-.45831-.91315-.69391-1.36694-.40857-.78564-.83044-1.59833-1.16241-2.41437-.39001-.95941-.59186-1.81567-.60022-2.54523-.05951-5.39062-.04401-10.76233-.02081-16.24969,.0083-1.96216-.68329-3.48273-2.11469-4.64856-.91809-.74811-1.83014-1.54443-2.71185-2.31458-.32703-.28534-.65363-.57062-.98145-.85437-.12671-.10968-.2644-.21472-.40253-.31946-.24927-.18933-.5072-.38507-.6051-.5683-.56866-1.06268-1.07935-2.14386-1.61993-3.28851l-.00952-.02045c.44202,.12671,.88397,.25378,1.32593,.38129,1.46289,.42145,2.97516,.85699,4.47443,1.25537,.43707,.11609,.62067,.27466,.7865,.67871,1.61768,3.94519,3.28656,7.94537,4.90045,11.81427l1.01941,2.4436c.05084,.12219,.10016,.24548,.14948,.36877,.17755,.44238,.36078,.8999,.6203,1.3335,.51367,.86084,1.41846,1.17041,2.36237,.80927,.95642-.36609,1.42725-1.19623,1.25995-2.21899Zm-32.47961-3.1026l.26257-2.20233,.49738-2.60596,1.05957-3.45654c.4837,.08539,.96289,.17908,1.43103,.27014,1.53992,.30048,2.99445,.58459,4.49988,.58691h.01935c1.47693,0,2.91364-.28149,4.43378-.57971,.47504-.09296,.96216-.18854,1.45569-.27582l1.07935,3.45728,.48071,2.5946,.27087,2.21143h-15.49017Zm7.15399-27.1087c-1.83087-.16766-3.09271-1.0968-3.75018-2.76227-.3183-.80463-.50037-1.66663-.69275-2.57904-.07965-.37708-.1593-.75421-.24884-1.1275,.23975-1.98834,.53223-3.6189,1.69659-4.93842,1.04822-1.18781,2.62073-1.7774,4.20581-1.57971,1.54596,.19421,2.83246,1.08655,3.53015,2.44928,1.43256,2.79675,1.37372,5.71802-.17035,8.44769-.9079,1.60516-2.40265,2.28918-4.57043,2.08997Zm-3.58057,14.9848c.09674-.17188,.19006-.34143,.27808-.51367,.25037-.49091,.39227-.54175,.79407-.46741,.50647,.09332,.99963-.00342,1.38928-.27393,.41388-.28717,.6969-.75909,.79706-1.32971,.19006-1.08429-.40857-1.97736-1.52588-2.27515-.11267-.02997-.22839-.05157-.34448-.07281-.13049-.02393-.25342-.04633-.33081-.08044-.41846-.18365-.57098-.43097-.52582-.85321,.03113-.29218,.14264-.64233,.49811-.65295,2.0965-.06146,4.20166-.06219,6.25488-.00415,.39685,.01178,.50531,.38428,.52618,.69464,.02844,.42035-.13654,.66394-.55121,.81451-.08612,.03113-.20453,.052-.32935,.0744-.15741,.02765-.33575,.05914-.52051,.12213-.93933,.32056-1.43213,1.07135-1.35248,2.0589,.04968,.61572,.31909,1.15216,.73901,1.47162,.34033,.25873,.76068,.35699,1.18292,.27582,.72693-.13885,.91321,.13507,1.3457,.94617l.03186,.05994c-2.78619,.99438-5.53326,.99548-8.35663,.00531Zm3.38556-10.70044v-.24091h1.55359v.24091h-1.55359Zm-2.98535,37.40662h7.53375c-1.18518,1.42114-2.46027,2.16742-3.73346,2.17383h-.0163c-1.28003,0-2.5722-.74622-3.784-2.17383Zm-2.56384-4.12122c-.01514-.00153-.03906-.00873-.06183-.01709-.1825-.39075-.35852-.61005-.50305-.78986-.14874-.18555-.26782-.33386-.41583-.72119l-.48975-2.65491-.1286-2.14771h15.8653l-.12671,2.14618-.50494,2.65527c-.1449,.38129-.26898,.53986-.42413,.73865-.14453,.18518-.31982,.40936-.4989,.78876-.01367,.00262-.02618,.00415-.03564,.00452-4.5575,.01483-8.70758,.01404-12.6759-.00262Z"/><rect x="12.99706" y="69.2555" width="122.47268" height="9.99985" transform="translate(-29.33064 56.96507) rotate(-35.5302)"/></svg>